<svg xmlns="http://www.w3.org/2000/svg" viewBox="0 0 64 64">
  <rect width="64" height="64" rx="14" fill="#0a0a0a"/>
  <circle cx="32" cy="32" r="26" fill="none" stroke="#e6d2bf" stroke-width="1.5"/>
  <path fill="#e6d2bf" d="M19.32 53Q18.49 53 18.49 52.45Q18.49 51.9 19.26 51.74L20.08 51.58Q21.18 51.36 21.73 50.51Q22.27 49.66 22.66 48.12L31.15 13.88Q31.26 13.33 31.51 13.16Q31.75 13 31.97 13Q32.25 13 32.49 13.16Q32.74 13.33 32.85 13.88L41.51 48.62Q41.89 50.15 42.38 50.75Q42.88 51.36 43.92 51.58L44.74 51.74Q45.51 51.9 45.51 52.45Q45.51 53 44.68 53H35.32Q34.55 53 34.55 52.4Q34.55 51.79 35.48 51.74L36.52 51.63Q37.45 51.52 37.7 51.03Q37.95 50.53 37.67 49.33L35.59 40.84Q35.26 39.41 33.78 39.41H28.03Q26.6 39.41 26.22 40.84L24.36 48.18Q23.53 51.3 26 51.63L26.82 51.74Q27.75 51.9 27.75 52.4Q27.75 53 26.99 53ZM27.86 37.77H33.89Q34.77 37.77 34.6 36.84L31.1 22.15H30.82L27.15 36.84Q26.99 37.77 27.86 37.77Z"/>
</svg>
