<svg xmlns="http://www.w3.org/2000/svg" viewBox="0 0 1157 913" fill="currentColor"><path d="M359 7c-11 1-20 8-21 16c-1 10 10 24 23 26c8 2 16-5 14-12c-1-5-4-6-10-4c-1 0-2 1-3 1c-2 1-4-1-4-4c0-8 16-9 24-1c10 10 3 30-12 36c-5 2-15 2-26 0c-5-1-6-1-14-1c-4 0-10-1-12-1c-7-1-30-1-38 0c-13 0-27 1-32 2c-2 0-6 1-8 1c-2 0-5 1-7 1c-2 0-4 1-5 1c-2 0-4 0-6 1c-2 0-5 1-7 1c-2 1-4 1-5 2c-2 0-3 0-5 1c-23 5-47 15-64 26c-12 8-20 14-29 24c-9 10-18 24-22 34c-3 11-5 16-6 27c-3 14-2 36 2 53c2 8 1 8-3 4c-8-8-19-9-28-3c-10 8-11 19-1 27c3 2 6 0 5-4c0-2 0-7 1-9c3-7 19 2 23 14c2 5 1 5-3 11c-5 7-7 10-10 13c-4 6-6 11-4 19c1 9 0 11-9 19c-5 4-9 9-12 14c-3 6-4 8-13 17c-17 17-24 25-26 30c0 1-1 2-1 2c-1 1-1 14 0 14c0 1 1 2 2 3c3 4 8 9 15 12c5 3 6 4 8 7c4 6 4 7 7 10c3 5 4 5 8 12c4 6 8 10 12 12c2 0 3 1 4 2c2 1 3 3 4 5c1 5 4 13 7 20c1 1 1 2 1 2c0 1 1 2 2 4c9 13 19 18 32 15c2-1 3-1 3-1c1 0 9-4 11-5c6-4 9-7 11-8c1-1 3-3 4-4c1-1 3-2 4-3c0-1 2-2 2-2c1-1 6-5 11-11c15-13 22-19 32-25c9-4 13-6 14-5c1 0 3 4 3 5c1 2 5 10 7 12c3 5 11 10 18 12c8 2 8 2 5 8c0 2-1 4-2 5c0 1-1 4-2 5c-2 4-3 8-3 12c-2 13-7 20-16 20c-10 0-18-10-12-18c2-3 5-3 5 1c-1 5 4 9 10 7c5-2 7-9 4-15c-4-9-15-12-26-7c-10 5-16 21-11 32c5 12 18 19 31 17c9-1 8-2 9 11c0 10 0 14 1 20c0 2 1 5 1 5c0 1 0 4 0 6c1 2 1 4 2 5c0 3 4 14 7 20c3 9 9 20 12 23c0 1 1 3 2 3c1 2 7 9 10 12c16 14 38 19 53 13c18-9 28-26 24-40c-3-7-10-16-16-19c-1 0-2-1-2-1c-6-4-18-5-25-1c-11 5-14 14-8 23c1 2 8 8 9 9c3 1 5-1 4-5c-2-6-2-10-1-12c7-9 23 3 20 15c-3 9-12 14-24 12c-5 0-5-1-14-5c-11-6-12-7-21-17c-4-5-10-15-12-21c-6-16-8-28-9-45c0-13 1-19 5-28c2-3 8-15 8-17c1-2 2-3 2-2c1 0 1 1 3 6c3 12 7 19 13 28c2 5 4 7 9 13c2 3 12 13 16 17c9 7 13 11 16 13c1 1 4 3 6 5c1 1 4 3 5 4c1 1 3 3 4 4c4 2 6 5 8 6c2 1 3 3 4 4c2 1 5 4 8 6c2 2 6 5 7 6c1 1 2 2 4 3c1 1 3 3 4 4c3 2 10 7 12 8c2 2 5 4 8 6c1 2 2 3 3 3c1 1 4 4 8 7c3 4 8 8 10 10c1 1 4 4 7 6c5 4 22 21 25 25c1 2 3 4 4 5c1 1 6 8 9 13c5 9 10 21 13 33c1 6 1 26-1 33c-7 29-49 37-64 13c-4-8-5-15-1-22c3-7 10-9 15-5c3 4 2 7-4 10c-6 3-7 7-2 12c4 3 5 3 9 3c13 1 20-10 16-23c-5-12-14-17-27-16c-13 2-21 14-21 30c1 11 4 18 11 25c7 6 9 8 17 10c7 1 7 2 6 5c-2 5 1 8 7 6c4-1 4 0 1 4c-4 5-4 11-1 13c4 3 7 2 10-4c2-4 3-4 3 0c0 5 2 11 4 13c1 1 2 2 2 3c5 6 16 8 22 5c3-1 7-5 8-7c2-4 9-7 14-6c2 1 5 3 5 4c0 1-2 2-3 2c-3-1-4-1-5-1c-10 4-9 17 2 18c8 1 14-5 14-13c-1-4-1-6-4-10c-2-4 0-3 6 3c6 7 9 8 13 8c5-1 9-6 7-10c-1 0-1-1-1-2c0-1-1-2-2-4c-4-4-3-4 1-4c10 0 10-11-1-17c-7-5-19-4-27 1c-2 1-3 2-3 2c-2 1-9 11-10 13c0 1 1 2 1 2c1 2 1 2-1 3c-2 0-2-1-3-4c-2-12-15-15-22-5c-2 2-2 2-2 5c-1 6 6 11 13 9c1 0 2 0 2 0c1 1-1 5-5 6c-8 5-20-5-18-15c2-13 11-21 28-23c5 0 23-1 24 0c1 0 1 0 2 0c1 0 9 0 18 0c20 0 20 0 17 4c-5 11 2 25 14 24c6-1 17 4 20 9c0 1 1 2 2 3c1 2 1 7-1 9c-4 8-13 10-18 5c-3-3-2-4 1-3c10 5 18-5 13-13c-7-10-22-7-25 5c-2 9 5 19 15 21c4 1 9-1 15-6c4-4 4-4 3 0c-2 3-3 8-3 11c1 4 2 7 7 12c3 3 5 6 5 6c1 2 3 8 3 9c0 2 2 3 4 3c1-1 2-2 2-5c1-6 2-8 5-11c8-6 11-15 8-22c-1-2-2-5-1-5c0 0 2 1 4 3c8 7 16 7 23 0c6-6 7-12 4-19c-2-5-5-7-9-8c-5-1-8 0-13 4c-4 4-4 10 0 14c3 3 6 3 11 1c4-1 5 0 2 3c-9 9-25-4-19-15c3-7 12-11 22-11c4 0 4 0 6-1c8-3 12-15 8-22c-3-5-3-5 11-5c43-1 52 0 60 2c18 7 24 28 9 37c-5 2-15-1-15-6c0 0 0 0 5 0c8-1 13-6 10-13c-5-11-22-10-23 2c-1 3-2 4-4 4c-1 0-2 0-1-2c1-1 1-2 1-3c-1 0-1-1-2-2c-4-9-13-15-23-16c-12-1-22 5-23 13c0 5 3 7 8 7c4 0 4 0 1 3c-7 10-1 20 9 15c2-1 3-2 7-5c4-5 6-6 7-6c0 0-1 4-2 4c0 1-1 2-1 3c-3 10 1 18 11 18c6 0 11-4 10-10c0-5-4-8-10-8c-5 0-6-2-1-4c5-3 12 0 16 5c5 9 17 11 25 5c7-5 10-10 10-19c0-3 0-5 0-5c1 0 2 2 3 5c3 5 6 7 10 5c4-3 3-8-1-15c-3-5-3-5 2-3c4 1 5 1 7-1c1-3 1-3 0-6c-1-3-1-3 3-4c8-3 13-6 19-12c13-15 11-43-5-51c-4-2-13-3-16-2c0 1-2 1-3 1c-10 2-19 18-15 29c3 9 16 13 24 6c6-5 5-8-2-12c-5-3-6-5-4-8c0-2 4-4 6-4c8-1 14 11 12 21c-8 29-51 30-65 1c-5-10-6-34 0-49c2-8 7-18 10-22c0-1 1-3 3-5c7-11 16-22 29-34c3-3 7-6 9-8c2-1 5-5 8-7c3-2 8-7 11-10c10-9 10-9 15-12c1-1 3-2 5-4c7-5 13-10 18-14c2-3 3-3 8-7c2-1 4-4 6-5c2-2 4-4 5-5c1 0 3-2 5-4c2-1 5-4 7-5c4-4 11-9 17-14c14-12 27-27 32-35c0-1 0-2 1-2c2-3 7-14 10-25c4-10 4-10 7-2c1 3 3 7 4 9c5 10 7 15 7 19c1 6 0 26-1 32c0 1 0 3-1 4c0 1 0 4-1 5c0 2-1 6-2 9c-2 8-7 18-11 24c-7 10-13 17-18 19c-2 1-5 3-8 4c-15 9-32 6-36-6c-4-9 3-18 12-18c7-1 9 4 6 12c-1 5-1 5 0 6c2 2 4 2 10-5c3-4 4-4 5-7c5-16-16-28-34-19c-23 12-26 35-8 52c6 6 14 10 21 11c9 2 24-1 33-7c0 0 2-1 3-1c6-4 20-17 22-23c1-1 2-2 2-3c2-3 8-15 11-22c0-2 1-4 2-6c1-4 4-12 4-16c0-1 1-3 1-3c0 0 0-2 0-4c1-8 2-14 2-23c1-14 0-13 7-12c19 3 38-13 35-29c-3-13-9-19-21-22c-11-2-22 7-19 18c2 9 16 8 15-1c0-5 6-2 7 3c2 9-10 17-20 13c-5-3-8-7-10-20c-1-4-2-7-3-9c0-1-1-4-2-6c-1-2-2-5-3-7c-2-4-2-5 3-6c15-5 23-11 28-26c2-5 3-6 11-2c10 5 17 10 23 15c8 7 8 7 18 16c8 8 13 13 16 15c2 1 4 3 5 4c7 6 16 10 25 12c9 3 21-3 27-13c1-1 1-2 2-3c2-2 7-14 8-19c3-11 3-10 7-12c8-4 10-6 16-16c3-3 6-8 7-9c1-1 2-3 3-4c0-2 1-2 4-7c2-3 3-3 7-5c23-13 25-25 9-42c-1-2-3-5-5-7c-2-2-8-8-13-13c-9-9-9-10-11-13c-1-2-3-5-3-5c-1-1-2-3-2-3c-1-2-6-7-13-14c-6-6-6-4-5-18c0-5 0-6 0-8c-1-4-1-3-10-16c-1-1-2-3-3-3c0 0-1-2-2-3c-3-4-4-6-2-10c3-10 16-19 22-15c2 1 2 6 1 10c-1 8 7 5 11-3c7-14-13-29-29-21c-1 1-3 2-4 3c-3 3-4 3-5 3c0-1 1-7 2-10c0-2 2-14 2-20c2-29-4-54-18-76c-6-9-16-20-24-27c-6-4-12-9-17-11c-5-3-6-4-8-5c-1-1-3-2-3-2c-1 0-3-1-5-2c-6-3-10-5-14-7c-7-2-10-3-13-4c-2-1-4-2-5-2c-1 0-2-1-4-1c-1 0-2-1-2-1c-1 0-2-1-4-1c-1 0-4-1-5-1c-4-1-17-4-21-5c0 0-4 0-7-1c-3-1-7-1-8-1c-2 0-5-1-7-1c-3 0-8-1-12-1c-5 0-10-1-13-1c-7-1-39-1-47 0c-3 0-9 1-12 1c-4 0-8 1-10 1c-8 1-19 2-22 1c-11-1-19-8-23-19c-4-12 6-24 19-24c6 0 9 2 9 7c1 4-1 5-6 3c-7-2-10-1-10 5c-1 13 17 15 28 3c17-17 7-35-20-35c-27 0-44 15-39 35c2 7 4 10 8 15c3 4 3 5-1 3c-1 0-3 0-3 0c-1-1-3-1-4-1c-7-1-8-2-13-2c-10-1-24 0-30 1c-2 0-5 1-6 1c-12 2-26 7-35 12c-5 2-10 5-11 6c-1 1-2 2-3 3c-3 2-8 6-10 9c-6 9-5 14 3 20c1 1 1 2 0 3c0 0-2 1-4 3c-3 1-5 3-6 4c-1 0-2 1-3 2c-2 1-3 2-5 3c-1 1-3 3-4 4c-9 6-24 21-29 28c-1 1-3 3-4 6c-2 2-4 4-4 5c-5 8-6 8-10 2c-2-4-6-9-8-12c-1-1-2-2-3-4c-6-7-20-20-30-28c-1 0-3-2-5-3c-3-3-9-7-11-8c-5-2-5-4-2-6c9-5 7-16-4-26c-2-1-4-2-4-3c-1-1-3-2-4-3c-1 0-3-1-3-2c-2-1-9-5-11-5c-1-1-3-2-5-2c-8-4-17-6-25-8c-2 0-4-1-6-1c-10-2-32-2-42 0c-1 1-3 1-5 1c-1 1-3 1-3 1c-4 1-5 1-2-2c6-9 9-17 8-26c-2-16-22-27-47-24zM375 12c20 3 29 15 25 30c-3 8-5 11-10 15c-3 2-3 2-3 3c1 3 1 3 3 4c3 1 3 1 9 0c4-1 7-2 9-2c1 0 4 0 7-1c16-2 40 0 56 6c1 1 3 1 3 1c0 0 2 1 2 1c7 3 9 4 11 5c15 7 25 18 25 24c0 4-3 6-8 7c-2 1-4 2-4 3c-1 2 0 3 4 5c4 2 9 6 19 13c1 1 3 2 4 3c1 1 4 3 6 5c3 3 8 7 14 12c6 6 20 24 24 30c1 2 1 5-1 8c-3 5-3 5-7-1c-4-8-5-9-7-13c-3-4-5-7-11-16c-1-1-2-3-3-4c-1 0-2-2-2-3c-3-4-6-6-8-5c-2 1-2 3 2 8c1 2 3 5 5 9c0 1 1 2 1 2c3 5 14 27 16 33c4 10 4 11 2 16c0 2-1 3-1 4c0 1-1 3-1 6c-1 2-2 6-2 8c-1 3-1 6-1 7c-1 1-1 4-1 7c0 9-1 10-13 25c-1 1-3 4-4 6c-3 4-7 8-10 10c-6 4-20 19-26 27c0 1-1 3-2 3c0 1-1 2-1 3c-1 0-2 2-3 3c-4 7-11 24-12 32c-1 1-1 4-2 5c-1 5 0 20 1 25c0 2 1 4 1 4c1 9 9 22 18 30c4 4 6 5 16 8c3 1 14 1 17 0c19-4 33-19 37-39c5-25-19-43-41-30c-3 2-3 2-5 3c-2 2-3 2-3 1c0-2 5-8 10-10c15-8 32-2 42 16c3 4 4 3 8-2c8-12 16-17 27-18c9 0 20 6 23 12c2 4 1 5-2 2c-8-8-22-11-31-6c-12 5-17 15-16 29c2 15 12 30 26 38c11 6 24 6 37 2c11-5 24-24 27-39c0-1 0-3 1-4c1-6 0-22-2-30c-3-9-5-15-9-21c-3-7-3-8-7-13c-5-8-7-10-7-10c-1-1-2-2-2-3c-4-5-11-12-15-15c-8-6-12-10-17-17c-1-1-2-3-3-4c-4-5-10-13-10-15c-1-1-1-3-1-7c-1-5-2-14-3-17c0-1 0-3 0-5c-1-3-3-8-4-11c-1-2-1-6 0-10c2-3 4-8 4-10c1-1 1-2 2-3c0-1 6-14 10-21c5-10 8-14 10-19c2-2 2-6-1-6c-1 0-3 2-4 4c0 0-1 2-2 3c-6 7-16 21-20 27c0 2-2 4-2 4c-2 4-9 18-14 28c-3 7-4 11-6 17c0 2-1 4-1 5c0 1-1 5-1 9c-2 16-1 29 4 42c1 6 1 8-1 11c-1 1-2 1-4 0c-2-1-4-6-7-21c-4-18-1-44 6-64c1-2 2-4 2-5c1-3 3-8 6-12c1-2 2-4 2-4c0 0 1-1 1-3c1-1 2-3 3-5c3-3 8-10 11-14c1-2 2-3 3-4c5-7 17-20 21-22c1-1 2-2 3-2c1-2 7-6 11-9c2-1 5-3 7-5c4-3 12-8 14-9c3-2 3-6-2-7c-12-1-11-12 3-22c26-21 66-28 104-19c5 1 9 0 9-3c0-2 0-2-3-4c-3-3-5-4-7-8c-9-19-1-32 22-37c16-3 32 3 32 12c0 13-18 25-25 18c-3-4-1-6 5-4c5 2 8 1 10-5c1-3 1-5-1-8c-4-9-20-9-30-1c-5 5-7 9-7 17l0 6l2 5c2 3 3 6 4 7c1 1 2 2 3 3c3 4 7 7 15 9c4 1 9 1 17 0c2 0 7-1 11-1c4 0 8-1 10-1c14-1 58-1 73 0c2 1 5 1 8 1c2 1 5 1 7 1c2 0 5 1 7 1c3 0 5 1 6 1c1 0 4 1 6 1c2 0 5 1 6 1c2 1 4 1 5 1c1 1 3 1 4 1c2 1 4 2 5 2c6 1 9 2 10 2c0 1 2 1 3 1c5 2 16 6 24 9c30 14 51 32 64 55c4 6 6 12 4 10c-1 0-1-1-1-1c0 0-1-1-1-2c-1-1-3-3-7-9c-4-7-16-19-23-25c-1-1-2-2-4-3c-5-4-13-10-20-13c-2-1-6-3-9-4c-3-2-6-3-7-4c-5-2-7-3-8-3c0 0-2-1-4-1c-6-4-9-4-10-3c-2 2-1 3 4 7c13 8 36 30 44 39c6 9 11 19 14 28c0 1 1 3 1 4c0 1 1 3 2 5c0 2 1 5 2 7c1 6 4 18 5 23c0 2 0 4 0 4c0 0 1 2 1 4c1 3 2 7 5 17c2 9 4 14 9 26c1 5 2 5 3 6c2 0 4-1 4-4c0 0 2-10 3-15c1-5 2-8 3-12c0-2 0-5 0-7c1-2 1-4 1-5c0-2 1-5 1-9c1-7 1-16 0-19c0-1 0-3 0-3c1 0 1 1 1 3c0 1 0 3 0 3c1 4 2 20 1 28c-1 8-2 12-3 22c-1 3-1 5-1 7c0 1-1 4-1 6c-1 2-1 4-1 5c0 0-1 2-1 3c-2 4-1 7 2 6c2 0 2-1 4-9c4-12 14-20 24-18c7 1 14 8 12 12c0 2-1 1-3-1c-6-12-23-5-31 11c-3 7-3 10 1 16c1 1 2 3 3 4c1 1 2 2 2 3c1 1 2 2 3 3c7 10 7 10 7 16c0 3 0 4-1 4c-1 0-1-1-3-6c-6-19-24-36-45-42c-13-4-28-4-38 0c-22 9-27 23-18 52c1 7 2 6-9 7c-4 0-8 1-11 1c-6 0-8 3-4 6c18 11 30 26 39 46c0 2 2 4 2 6c1 1 2 5 4 8c3 8 4 9 9 4c7-7 15-12 20-12c3-1 2 1-3 4c-8 5-12 10-16 20c-5 13-7 13-11 1c-5-14-14-23-26-27c-8-3-9-3-2-3c8 0 8-2 1-8c-1-2-4-4-6-6c-5-5-18-13-22-13c-2 0-4 2-6 6c0 1-1 2-2 3c-1 1-1 3-2 3c-1 4-9 12-12 14c-4 3-13 7-16 8c-5 2-23 2-33 1c-8 0-19-4-22-6c-1-1-2-1-3-2c-1 0-2-1-3-2c-1-1-3-2-5-4c-10-7-15-15-20-30c-3-10-3-14-3-30c-1-16 0-15-3-15c-2 0-2 1-4 5c-4 7-5 8-16 15c-5 4-5 4-1 12c6 12 13 20 25 32c2 2 6 5 8 7c5 4 10 9 19 16c17 12 30 32 32 50c0 2 0 4 1 5c0 3-2 8-6 16c-5 8-9 16-9 20c0 1-1 3-1 4c-3 14 2 27 11 30c13 5 24-8 24-28c0-8 0-10-5-21c-9-19-10-22-4-38c9-22 27-39 49-42c5-1 8 0 5 1c-1 0-3 0-4 1c-1 0-2 1-3 1c-20 7-42 29-44 47c-2 13 3 25 15 32c5 4 6 5 11 4c15 0 26-8 27-21c1-10-7-15-20-13c-3 0-4 0-3-1c5-6 28-5 43 2c1 1 2 1 3 1c2 1 9 6 11 7c9 8 21 20 28 27c2 3 6 7 8 10c33 37 52 35 64-9c1-5 1-7-4-8c-1 0-4-1-5-1c-2 0-4-1-5-1c-2-1-4-1-5-2c-14-3-32-9-38-11c-2-2-3-3-1-4c2-1 3-1 6 1c8 4 25 10 42 14c1 0 3 1 5 1c1 1 3 1 5 2c2 0 4 0 6 1c5 1 9-1 23-14c1-1 2-2 2-2c0 0 0 1-1 1c0 0-1 2-1 3c-2 5-9 12-16 14c-4 2-4 2-6 9c-13 42-30 48-61 22c-7-5-7-6-19-17c-5-5-11-10-13-12c-2-2-5-4-5-5c-7-5-19-12-27-15c-8-3-9-3-11 4c-4 13-10 20-17 23c-5 2-6 3-9 3c-9 2-10 3-8 8c1 2 3 8 6 15c2 4 3 8 4 12c2 8 2 10 3 12c3 7 11 12 18 12c13 0 23-13 17-24c-4-8-18-8-16 0c1 4 0 6-3 4c-4-3-1-11 6-14c4-1 12 1 16 5c5 4 8 14 6 20c-4 11-16 18-30 15c-11-1-10-3-11 21c-1 10-1 13-2 19c0 1 0 3 0 4c-2 12-11 35-18 46c-14 22-35 34-55 31c-9-2-20-10-25-20c-7-13 1-28 17-34c10-4 23 1 25 9c0 4-4 10-5 6c-1-8-7-12-15-11c-9 1-16 10-16 18c0 15 18 26 35 21c6-2 18-8 23-12c3-2 11-12 13-15c1-1 2-3 2-3c3-5 5-7 8-15c9-20 13-58 8-70c-1-1-1-2-1-3c0 0-1-2-2-4c-1-3-4-7-6-11c-1-4-3-7-3-8c-1-1-1-3-2-4c0-2-1-4-1-5c-1-6-6-7-6-2c-1 0-1 2-1 3c-1 1-1 3-1 4c-1 2-1 3-1 4c0 1-1 2-1 4c-4 12-9 23-15 31c-2 2-3 5-4 6c-4 5-17 18-26 27c-9 7-12 10-15 13c-2 1-5 3-6 4c-1 1-3 3-5 4c-2 2-4 3-5 4c-1 1-3 2-5 4c-1 1-3 3-4 3c-2 2-5 4-9 8c-2 1-5 4-7 5c-7 6-11 9-13 10c-4 2-4 2-10 8c-3 3-7 7-10 10c-5 4-11 9-21 18c-2 2-5 5-8 7c-2 2-4 4-4 4c0 0-7 8-11 12c-15 18-26 42-28 60c0 5 0 19 1 24c1 11 9 22 21 29c6 3 6 4 2 4c-4 1-8 0-15-5c-24-16-33-44-21-70c3-6 13-24 15-27c0 0 2-2 3-3c2-3 10-13 11-13c1 0 5-5 7-7c4-4 16-16 21-20c1 0 2-2 4-3c2-1 4-4 6-5c2-2 5-4 5-4c1-1 2-2 3-2c1-1 3-2 5-4c2-2 5-4 7-6c5-3 5-4 5-5c0-2-2-3-5-2c-1 0-4 1-5 1c-2 0-5 1-6 1c-1 0-4 1-5 1c-2 0-5 0-6 1c-6 1-18-1-25-5c-10-4-19-14-22-22c-1-1-1-3-2-3c-1-2-3-7-4-9c0-1-1-4-1-5c-3-8-1-22 3-31c8-15 35-25 48-18c0 1 1 1 2 1c4 1 11 7 13 13c3 9 1 17-7 21c-7 4-11 4-15 0c-3-4-2-6 4-6c9-1 12-4 11-11c0-8-5-12-16-14c-15-1-30 10-33 24c-1 11 0 21 4 28c3 8 6 11 13 15c10 6 24 7 39 2c1 0 3-1 3-1c2 0 9-4 12-7c2-1 3-3 4-3c0-1 5-7 8-12c1-1 2-2 2-3c1-1 1-2 2-3c0 0 1-3 3-5c2-4 6-12 6-14c1-1 1-3 1-4c4-12 6-39 4-51c0-2 0-6 0-8c0-2-1-4-1-5c-1-2-2-9-2-11c0-1 0-1-1-3c-1-2-2-4-2-5c0-1-1-4-2-6c-1-2-2-5-3-7c-1-4-3-6-5-4c0 1-1 1-1 9c0 5 0 10 0 11c0 1-1 4-1 6c0 3-1 6-2 8c0 2 0 5-1 7c0 1 0 3-1 4c0 0 0 2-1 3c0 4-5 14-8 17c-1 1-5 4-8 6c-3 2-10 5-13 5c-1 0-2 0-4-1c-3-2-6-3-7-3c-2-1-9-7-9-8c0-1-1-2-2-5c-3-4-4-7-5-10c-1-4-5-4-8-1c-6 9-17 21-22 25c-1 0-3 2-4 3c-2 1-7 4-12 7c-7 4-14 10-16 14c-1 1-2 2-2 3c-4 5-5 6-8 8c-1 2-3 4-4 6c-1 2-2 6-3 8c-3 4-6 11-7 16c-1 3-2 5-2 7c-1 1-1 4-1 6c-1 2-1 5-1 6c-2 11 4 31 11 41c17 21 37 26 56 15c16-10 19-30 7-38c-9-7-17-6-23 1c-3 3-3 3-4 1c-1-5 9-12 17-12c13 1 19 6 22 16c3 9-1 25-8 35c-5 7-21 14-35 14c-12 0-27-7-36-16c-13-14-19-29-19-45c0-23 6-37 26-63c2-3 3-4 3-5c2-1 3-3 3-5c1-2-1-2-12-2c-13 1-29-2-39-8c-10-4-14-8-21-16c-3-3-6-4-8-1c-7 11-24 20-41 23c-10 2-14 2-27 2c-7 0-8 1-3 7c22 27 30 45 29 70c0 13-6 28-13 37c-1 0-2 2-3 3c-7 10-25 19-37 19c-10 0-15-2-25-6c-10-5-17-14-19-26c-2-10-2-16 2-23c3-5 6-7 16-9c10-2 20 3 20 10c1 4-1 4-3 1c-5-8-15-9-24-2c-11 9-8 28 5 36c20 13 38 10 56-10c13-14 17-36 11-59c-3-12-10-26-15-32c-1-1-3-4-4-5c-7-9-13-16-17-19c-5-3-6-3-9-5c-4-2-7-5-14-9c-4-4-14-14-18-20c-5-8-8-8-11-1c0 2-1 4-2 4c0 1-1 2-1 3c-1 4-9 13-11 14c-1 0-3 0-4 1c-1 1-2 1-2 1c-1 0-2 0-3 1c-3 1-4 1-9-1c-12-4-19-11-22-20c0-1-1-3-2-5c0-2-1-5-1-6c0-1-1-3-1-4c0-1-1-5-1-8c-1-3-1-7-2-7c0-2-1-16 0-19c0-3 0-4-1-5c-3-2-4 0-6 5c-1 4-3 8-4 11c-1 4-3 8-3 11c-1 2-1 5-1 5c0 1-1 3-1 6c0 2-1 6-1 8c-2 11-2 25 1 42c1 10 5 21 9 28c4 6 12 19 14 22c1 0 2 2 3 3c6 7 13 11 29 14c7 1 18 0 24-3c14-7 21-19 20-37c0-10-1-13-5-19c-7-11-24-16-36-10c-7 3-10 13-6 18c2 2 5 3 9 4c7 0 7 1 5 4c-2 6-6 7-14 3c-11-5-13-15-5-27c3-4 7-7 16-10c13-4 35 5 43 17c6 10 7 27 2 39c-5 13-12 24-20 29c-6 4-14 7-19 8c-1 0-4 0-5 1c-3 0-15-1-20-2c-2 0-4-1-5-1c-2 0-4-1-5-1c-6-2-8 2-3 5c2 2 9 7 14 11c2 2 4 3 5 4c17 13 30 25 33 29c2 3 7 7 9 9c7 6 18 22 27 39c4 8 5 10 6 18c3 11-1 28-9 39c-7 12-21 22-30 23c-8 1-8 0 0-5c13-7 20-17 22-32c1-6 1-20 0-24c-3-15-8-28-17-42c-1-2-2-4-3-5c0 0-2-3-3-5c-8-9-23-25-39-39c-7-5-11-9-16-14c-6-6-10-9-13-11c-2-1-7-5-12-8c-1-1-3-3-4-4c-1-1-3-2-4-3c-3-2-6-5-9-7c-1-2-4-4-7-6c-2-2-5-4-6-5c-2-2-11-9-17-14c-4-3-9-7-10-8c0 0-2-2-4-4c-18-15-30-32-37-49c-2-6-3-8-3-9c0 0-1-2-1-3c-1-1-1-3-1-5c-1-1-1-3-1-4c-1 0-1-2-1-3c-1-6-6-7-7-1c0 4-2 9-8 20c-9 19-9 19-9 31c0 25 6 53 16 67c10 16 14 20 26 26c12 7 15 8 23 8c19 0 32-17 23-31c-9-13-25-12-29 0c-1 4-3 3-4-1c0-5 2-9 9-12c3-2 12-2 15-1c1 1 3 1 3 2c9 2 17 14 17 23c0 15-17 30-33 30c-16 0-35-10-45-24c-6-9-10-17-13-24c-1-1-1-3-2-5c-1-1-1-3-2-4c0-1 0-3-1-4c-4-11-6-23-7-53c0-7-1-8-6-7c-10 2-18 1-25-3c-4-3-10-12-10-16c0-3 2-10 4-13c3-6 14-10 19-8c6 3 9 8 7 12c-2 4-5 4-5 0c1-4 1-5 0-6c-1-3-9-2-13 2c-10 9-1 25 14 26c10 1 19-7 21-21c1-7 4-16 7-22c1-1 2-3 2-4c1-1 1-3 2-4c2-5 1-6-9-8c-12-3-20-10-25-25c-3-8-3-8-10-6c-6 2-16 8-20 10c-1 1-2 2-3 2c-2 1-5 4-10 8c-1 1-7 6-12 11c-29 29-42 37-56 34c-8-2-16-11-21-26c-1-3-2-5-3-6c0-1-2-7-2-9c-1-2-3-4-5-5c-6-1-14-8-17-15c-1-3 0-3 6 3c3 3 6 6 8 7c1 1 3 2 4 2c1 2 3 2 7 1c2-1 5-2 7-2c9-2 10-2 19-5c9-2 14-4 21-6c1-1 3-2 4-2c2 0 3-1 4-2c5-3 8-3 9-1c1 2-8 5-18 8c-1 1-4 2-7 2c-2 1-8 3-12 4c-5 1-8 2-8 2c0 0-2 0-3 0c-2 1-3 1-4 1c0 0-2 1-4 1c-5 1-5 3-1 16c9 26 22 33 39 22c6-5 22-20 30-30c2-2 10-11 13-13c0-1 3-3 5-5c3-2 6-5 8-7c2-2 3-3 4-4c3-3 19-10 31-12c11-2 22-1 25 3c1 2 0 2-3 1c-12-3-20 2-20 12c0 10 9 20 20 22c5 1 11 1 13 0c12-6 19-17 20-28c2-20-18-45-43-54c-1-1-3-1-4-2c-1-1-2-1-3-1c0 0-1 0-2-1c-4-1 8 0 13 2c1 0 2 0 3 1c2 0 9 3 12 5c14 9 23 22 29 42c3 10 2 13-6 30c-5 10-6 12-6 19c-1 22 12 37 27 29c7-3 11-16 9-26c0-1 0-3-1-5c-1-5-3-10-6-17c-9-17-10-17-8-25c2-15 8-28 18-39c6-7 12-12 18-16c1-1 4-3 5-4c2-1 4-3 5-4c1-1 3-2 5-4c1-1 3-3 5-5c4-3 14-13 15-15c1-2 3-3 4-4c4-5 11-18 12-21c0-3-3-5-13-11c-2-1-5-5-8-12c-3-5-7-4-6 2c2 11 0 32-4 41c0 1 0 3-1 4c-1 4-3 7-4 9c0 1-1 3-2 4c-2 4-4 5-8 9c-1 1-4 3-5 4c-2 2-4 3-4 3c0 0-1 0-2 1c-6 5-16 8-26 9c-3 1-22 1-24 1c0-1-2-1-4-1c-4 0-8-2-11-3c-1-1-2-2-3-2c-9-4-16-11-23-24c-5-8-5-8-15-2c-1 1-3 2-5 3c-3 2-14 10-18 15c-3 3-2 5 3 5c8 0 8 1 0 3c-9 3-15 8-22 17c-2 3-2 3-4 9c-3 8-4 9-6 9c-1 0-2-1-4-6c-5-13-8-17-16-22c-6-4-7-5-5-5c5 0 15 5 22 13c3 3 5 2 7-3c1-1 2-4 3-6c2-5 6-14 7-17c4-9 11-19 17-25c1 0 3-2 5-4c5-4 9-7 13-10c2-1 3-3 2-4c-1-2-1-2-8-2c-16-1-17-1-18-3c0 0 0-1 1-5c7-23 5-36-6-45c-16-13-43-13-65-1c-15 9-26 22-31 38c-2 6-3 6-3 4c-2-5 1-13 6-19c0 0 2-3 4-5c2-3 4-6 5-7c4-5 4-8 0-15c-8-17-25-23-31-11c-1 3-2 3-2 2c-1 0-1-3 0-5c10-15 32-8 36 12c1 7 4 10 6 6c1-1 0-7-1-10c0-1-1-3-1-6c-1-2-1-4-1-5c-1-1-1-2-1-2c0-1 0-3 0-4c-1-6-2-8-2-14c-2-14-2-28-1-37c1-2 1-5 1-6c0-2 1-4 1-3c0 0 0 2 0 3c-1 12-1 18 0 24c0 2 1 6 1 9c1 9 2 18 5 29c0 2 1 6 2 8c1 8 4 9 7 1c1-2 2-4 2-6c2-5 7-19 9-27c0-2 1-4 1-6c1-3 3-10 4-16c1-6 3-18 5-23c1-2 2-5 2-8c4-10 4-13 7-17c2-4 5-10 8-13c7-11 30-33 44-42c5-4 6-5 5-7c-1-1-4-1-8 1c-5 3-6 3-11 5c-2 1-5 2-5 2c-1 0-3 1-4 2c-2 1-4 2-4 2c0 0-12 6-14 7c-7 4-9 6-19 14c-4 3-14 13-16 16c0 1-2 3-3 4c-2 3-9 13-10 16c-2 3-3 3-2 2c0 0 1-3 2-5c11-27 37-50 72-65c6-2 14-5 17-6c2 0 4-1 5-1c2-1 7-2 11-3c1 0 2-1 3-1c1 0 3-1 4-1c1 0 3-1 5-1c1 0 3-1 5-1c7-2 9-2 13-3c2 0 6 0 8-1c2 0 6 0 8-1c2 0 7 0 10-1c16-1 60-1 74 0c2 1 6 1 9 1c3 1 6 1 8 1c6 1 15 1 17 1c0-1 2-1 3-2c4-1 8-3 12-7c2-2 4-3 4-4c1 0 1-1 1-1c0-1 1-3 2-4c4-9 5-16 1-24c-4-8-15-13-25-11c-4 0-5 0-7 2c-5 3-6 9-3 14c2 4 4 5 9 3c5-2 7-1 5 3c-5 9-22-1-25-14c-3-11 13-18 31-15zM987 103c17 9 27 15 40 28c14 14 23 28 26 41c3 11 4 30 3 37c-1 1-1 5-1 9c-1 7-3 18-4 24c-2 7-4 4-8-14c-1-3-2-8-3-10c-2-9-4-19-5-23c0-4-4-17-6-26c-1-3-2-7-3-9c-6-18-17-34-35-49c-1-1-2-2-2-2c0 0-1-1-2-2c-2-1-6-5-6-5c0-1 3 0 6 1zM168 102c1 0 0 1-3 4c-1 2-4 4-5 5c-1 1-4 3-6 5c-9 9-17 17-20 23c-1 2-1 3-2 3c-3 5-7 15-10 27c-4 15-5 18-8 33c0 3-2 9-3 13c-1 4-2 8-2 9c-2 9-4 15-5 19c0 1-2 3-2 3c-1 0-2-2-2-6c-2-9-3-10-4-23c-3-22-1-43 5-55c3-5 5-9 7-11c0-1 2-3 2-4c1-1 2-3 4-4c1-2 3-4 3-5c4-5 18-17 24-22c1 0 3-2 5-3c5-3 20-11 22-11c0 0 0 0 0 0zM593 186c-1 1-1 2-1 3c-1 1-1 2-2 3c-1 4-4 6-3 2c0-2 5-10 6-10c0 0 0 1 0 2zM561 189c2 3 2 3 2 5c0 3-2 2-3-2c0-1 0-2-1-3c-1-4 0-4 2 0zM585 204c0 1 0 1 0 2c0 0 1 1 1 2c0 1 1 3 2 5c7 27 7 49-1 73c-5 18-18 30-27 26c-5-2-9-12-5-16c3-3 7-2 9 1c7 11 21-20 21-45c0-8-1-14-2-23c-1-3-3-11-4-14c-1-2-1-3 1-7c2-5 4-6 5-4zM577 225c0 1 1 7 2 13c1 10 0 34-3 37c0 1-2 1-2 0c-2-4-3-30-1-41c0-2 0-4 0-6c1-4 2-5 4-3zM601 262c0 0 2 2 2 3c1 2 3 3 3 4c1 1 2 2 2 3c3 5 8 10 11 12c26 21 42 47 47 74c0 3 0 17 0 20c-3 16-14 34-24 37c-16 6-32 3-43-9c-3-3-6-7-7-9c0-1-1-2-1-3c-4-6-6-18-4-25c4-11 16-17 27-14c12 4 15 9 13 20c-1 4 0 7 2 7c2 0 3-1 4-4c6-12 5-20-1-28c-2-2-7-6-8-6c0 0-1 0-1-1c-7-4-19-5-27-1c-7 2-12 6-18 13c-3 4-3 4-6 0c-12-17-33-21-49-9c-9 7-11 16-7 27c2 7 3 9 6 9c2 0 3-3 1-8c-2-9 3-15 14-19c12-3 24 4 26 15c5 24-17 50-41 48c-3 0-5 0-11-2c-3-1-9-4-12-8c0-1-2-3-3-4c-5-7-10-16-11-26c-1-6-1-18 1-24c2-13 9-28 16-38c0 0 1-2 2-3c0 0 1-2 2-3c1-1 2-3 3-4c7-8 16-17 22-21c3-2 8-8 12-13c0-1 1-2 1-3c1 0 2-1 3-3c4-7 6-7 6-1c1 7 2 14 4 19c1 4 1 5-2 6c-7 2-10 10-5 19c4 9 13 12 22 6c3-1 3-1 7 1c9 4 14 3 19-3c5-5 6-14 4-19c-2-2-3-3-6-4c-4-1-4-2-2-7c2-6 3-12 3-18c1-5 2-6 4-3zM148 263c18 4 27 13 26 28c0 9-3 21-5 27c-3 5-1 5 10 6c13 1 13 1 7 6c-12 9-18 16-24 27c-3 6-5 10-9 20c-3 8-4 9-7 6c-6-5-10-7-20-10c-7-3-11-5-14-7c-5-4-7-4-9-2c-2 2-1 3 5 7c1 1 4 4 6 6c2 2 5 5 6 5c4 2 12 8 14 10c1 2 3 7 5 10c4 10 8 18 11 18c3 0 8-7 11-17c3-9 12-18 23-22c25-10 68 14 75 43c2 11-2 21-13 29c-4 3-5 3-10 3c-12 0-21-9-20-18c2-9 12-10 23-2c5 5 8 1 4-7c-5-11-19-15-39-11c-7 2-17 5-21 8c-1 0-2 1-4 2c-3 2-7 5-11 9c-2 1-4 3-4 4c-1 0-3 2-5 4c-2 2-5 4-6 5c0 1-2 2-2 2c0 1-2 2-3 4c-1 2-3 4-3 4c-5 6-21 22-26 27c-9 7-16 9-22 5c-5-4-9-11-13-22c0-2-1-5-2-6c-1-2 0-4 4-4c1 0 2 0 3 0c1-1 4-2 14-4c3-1 7-2 8-2c0-1 2-1 4-2c2 0 12-3 17-5c13-5 15-10 6-14c-5-3-7-3-10-1c-1 1-2 2-3 2c-2 1-3 2-3 2c-2 1-15 6-19 7c0 0-1 0-2 0c-1 1-3 1-8 3c-2 0-5 1-6 1c-16 4-19 4-24 2c-3-2-10-9-12-12c-3-4-7-9-8-11c-1-1-2-2-3-4c-1-1-2-3-3-5c-3-3-5-6-5-7c0-1 1-1 6-5c11-6 15-12 18-21c2-4 2-5 1-6c-2-2-3-2-5 0c-5 2-9 4-14 6c-4 2-8 3-9 3c-3 2-5 3-6 2c-4-2 0-8 10-15c3-3 9-8 12-12c1-2 3-4 4-5c1-1 3-3 3-4c1-1 2-3 3-4c0-1 1-2 2-3c2-4 12-14 17-17c3-2 3-5 3-17c0-3 3-12 6-18c13-22 41-35 65-31zM1019 263c11 1 23 6 31 12c8 6 17 16 20 24c3 9 4 11 4 18c0 8 0 9 2 11c8 6 15 14 18 18c2 4 9 13 15 19c5 5 7 7 12 12c6 5 8 7 8 10c0 3-1 3-10 0c-4-2-5-2-7-3c-2-1-6-3-9-4c-7-3-8-4-9-2c-1 1-1 2 0 7c3 8 9 14 20 22c5 3 5 3 4 6c-1 1-2 2-3 3c-1 2-2 4-3 5c-3 4-6 7-7 9c-6 9-16 19-20 20c-2 1-9 0-11 0c0-1-3-1-5-2c-6-1-10-2-13-3c-2-1-4-1-4-1c0 0-7-2-8-3c-1 0-3 0-4-1c-8-2-14-5-17-7c-3-3-5-3-10 0c-10 4-6 10 11 16c1 0 4 1 7 2c2 0 6 2 9 3c3 0 7 1 8 2c4 1 7 2 11 2c1 1 3 1 4 1c6 2 6 2 5 6c-9 30-19 35-36 22c-4-3-9-8-13-12c-5-6-16-18-18-21c-1-1-4-4-7-7c-3-2-7-6-8-8c-10-9-12-10-18-13c-28-15-58-11-62 7c-1 5 1 7 6 3c12-8 22-7 22 3c1 10-10 18-22 17c-7-1-17-10-20-18c-9-28 39-67 72-58c11 3 22 12 25 23c4 11 10 19 14 16c1-1 6-10 9-17c3-9 6-12 16-18c3-2 5-4 8-6c2-2 4-4 5-5c7-5 8-8 6-9c-1-1-1-1-1-1c-1 0-5 1-6 3c-3 2-8 4-14 6c-8 2-16 6-20 10c-4 4-5 4-7-1c0-1 0-2-1-2c0-1-1-3-2-5c-2-6-7-17-8-18c0 0-1-2-2-3c-2-5-8-12-11-15c-1 0-2-2-4-3c-1-2-4-4-5-5c-8-5-7-5 5-6c12-1 13-1 10-9c-6-19-6-33 0-41c4-4 12-9 20-10c8-2 11-2 18-1zM595 295c2 1 2 2 2 5c0 9-6 15-13 12c-4-1-4-3-1-7c2-2 3-4 5-6c2-4 4-6 7-4zM347 309c1 1 3 2 4 3c9 5 9 6 5 12c-1 2-3 5-3 6c-1 1-2 3-3 4c-11 15-17 20-13 11c2-5 3-7 4-9c0-1 0-4 1-5c1-5 1-7 1-16c1-10 1-10 4-6zM807 308c0 0 0 3 0 7c0 10 2 19 6 27c5 13-3 6-15-12c-2-3-6-10-6-11c0-2 2-3 6-6c1-1 4-3 5-4c2-2 3-2 4-1zM71 323c0 2-2 3-5 6c-2 0-3 1-3 2c-1 1-2 1-2 0c0 0 3-3 6-6c3-3 3-3 4-2zM1083 325c1 1 1 2 0 2c0 0-2-2-2-3c0 0 1 0 2 1zM1089 331c0 0 1 1 2 1c1 1 6 6 7 8c0 0 1 2 2 3c1 1 1 2 1 3c0 1-2-1-5-6c-2-2-4-4-4-5c-1-1-2-2-2-2c0-1-1-1-1-1c-1-1-1-1-2-2c0-1 1-1 2 1zM60 333c0 0-3 5-5 8c-1 1-3 3-3 4c-1 1-2 2-3 2c-1 0 0-2 1-3c0-1 1-3 2-4c2-3 8-9 8-7zM211 353c0 0 1 2 2 4c2 3 3 5 8 10c2 3 2 3 1 4c0 0-1 0-3 0c-2-1-3-1-4-1c-1 0-3-1-5-1c-2-1-5-1-12-1c-9 0-10 0-10-1c0-1 6-6 12-10c8-4 9-5 11-4zM947 355c8 4 14 9 15 11c1 2 1 2-9 2c-9 0-15 1-20 3c-5 1-6 0-3-4c3-4 6-8 8-10c2-5 3-5 9-2zM1111 358c0 0 10 10 10 10c0 0 1 1 1 2c2 1 1 1-1 0c-3-2-11-10-11-11c-1-2-1-2 1-1zM40 359c-2 3-8 9-9 9c-1 0 3-5 7-8c2-1 3-2 2-1zM1136 385c2 2 5 7 5 10c2 7-2 13-14 20c-4 3-6 4-6 3c0-1 1-4 2-5c3-3 3-6-1-8c-13-8-21-15-21-18c0-1 1-2 2-1c1 0 5 2 7 2c1 1 3 2 9 4c1 0 4 1 5 2c9 3 10 3 10-5c0-6 0-7 2-4zM17 385c0 1 0 2 0 5c-1 5 1 7 6 5c1 0 4-1 6-2c2-1 6-2 8-3c2-1 5-2 6-3c1 0 3-1 3-1c2-1 4 0 4 1c-1 4-8 9-20 17c-5 3-6 5-4 7c0 1 1 2 2 3c4 5 1 5-8-1c-11-8-14-13-9-22c2-5 5-8 6-6zM862 385c10 3 18 3 29 2c7-1 8-1 5 2c-7 7-13 16-16 27c-2 5-3 6-4 3c-4-14-7-20-16-29c-3-4-4-5-3-5c0-1 1-1 1-1c0 0 1 1 4 1zM294 385c0 0 0 1-4 6c-8 8-11 15-15 26c-1 5-2 4-4-2c-4-10-8-18-15-24c-5-5-4-5 4-4c12 1 22 1 31-2c1 0 2 0 3 0zM878 446c0 0 1 1 1 2c1 2 2 5 5 11c5 11 5 15 3 26c-4 19-21 20-25 2c-1-7 1-14 8-29c2-5 4-9 5-11c1-2 2-3 3-1zM275 446c2 2 12 24 13 29c2 11-1 21-7 24c-9 4-17-4-18-19c-1-9 0-11 5-24c1-1 2-4 3-6c1-5 2-6 4-4zM791 479c1 1 1 3 2 4c0 1 0 2 0 3c1 2 1 7 1 10c0 1 1 3 1 5c2 6 2 28 0 38c0 2-1 5-1 7c0 4-2 11-3 14c-1 2-1 3-1 4c-1 1-2 4-3 6c-1 1-2 4-2 5c-1 1-2 2-3 3c0 1-1 2-2 4c-2 4-8 12-9 13c-1 0-2 2-3 3c-1 2-2 3-5 4c0 1-2 1-4 2c-7 4-23 6-31 4c-8-2-18-11-20-17c0-1-1-3-1-5c-2-5-2-18 0-22c4-11 13-17 25-17c8 1 12 3 12 9c1 4-1 5-7 5c-12 1-14 8-5 17c3 4 4 4 8 4c10-1 20-8 23-16c1-3 0-12-2-16c-2-4-4-6-5-8c-2-2-2-3 2-4c7-3 10-4 15-10c3-3 5-5 6-6c1-2 3-9 4-10c0-1 0-2 1-3c0-1 1-3 1-4c0-1 1-4 1-7c0-2 1-6 1-8c1-2 1-5 1-6c0-2 1-3 1-4c0-4 1-4 2-1zM362 478c0 0 0 2 1 5c0 2 0 6 1 8c0 2 1 5 1 8c1 8 5 19 9 25c3 5 13 12 19 14c2 0 4 3 2 4c-1 1-4 6-5 7c-5 13-2 24 10 30c10 5 17 4 22-4c5-8 2-13-9-14c-6 0-7-1-6-6c1-5 4-7 14-7c10 0 18 5 22 15c2 5 3 18 1 24c-5 18-22 25-46 19c-9-2-12-4-19-12c-5-6-16-24-17-28c0 0-1-2-1-4c-4-10-6-23-7-40c0-10 1-16 3-31c1-10 4-17 5-13zM718 514c1 1 2 3 2 5c1 2 3 4 4 6c4 5 4 6-1 7c-14 1-29 11-35 21c-3 6-4 10-5 21c-1 6 0 14 4 22c1 2 2 5 2 6c1 2 1 3 2 3c0 1 1 2 1 3c2 2 6 8 7 9c2 3 2 3-5 3c-6 0-9 1-13 4c-8 6-9 12-5 27c1 2 2 3 4 3c2 0 2-1 3-5c2-11 5-15 12-15c9 0 15 11 12 21c-4 11-21 20-34 17c-15-3-31-20-34-37c-2-11-2-10-2-16c1-5 1-6 1-9c1-2 1-4 1-4c0-2 3-12 6-18c3-9 11-20 19-28c1-1 3-3 4-4c2-3 4-4 8-7c2-1 4-2 5-3c1-1 3-2 5-3c1-1 3-2 4-3c2-1 3-2 4-3c6-4 15-13 19-19c3-4 4-5 5-4zM435 515c1 1 3 3 5 5c4 6 5 7 10 11c8 7 12 10 24 18c5 2 13 10 16 15c2 1 3 3 4 4c3 3 5 6 8 12c2 3 3 6 3 6c0 1 1 2 1 3c4 7 7 21 8 30c0 8-4 24-8 30c0 1-1 2-2 3c-1 3-8 10-11 12c-12 10-24 11-37 4c-10-5-14-13-13-23c1-4 1-4 4-7c10-9 18-4 21 11c1 7 5 7 7 0c2-9 2-12 1-15c-2-9-9-14-20-14c-7 0-7 0-3-5c5-5 11-17 13-24c0-1 1-3 1-4c2-6 1-22-2-29c-5-13-21-24-38-26c-4-1-4-2-1-6c1-1 2-4 4-7c3-6 3-6 5-4zM576 534c1 0 2 2 4 4c6 7 21 15 34 18c2 1 4 1 5 1c0 0 2 0 4 1c7 1 10 1 15 1c7 0 7 0-1 10c-4 4-8 10-10 14c-1 1-2 4-3 6c-2 4-4 8-5 11c-2 4-2 6-2 9c-1 2-1 5-2 6c-1 5 0 19 1 25c4 19 16 37 29 45c11 6 23 10 32 9c5 0 9-1 12-2c7-2 7-1 1 6c-6 8-16 26-19 34c-8 25 0 50 22 67c6 4 5 5 0 5c-2-1-8-1-18-1c-19 1-30 0-41 0c-5 0-18 0-30 0c-12 0-24 0-27 0c-48 0-68 0-76 0c-9 1-14 1-27 0c-6 0-10 0-13 0c-5 1-6 1-7 0c-1-1-1-1 4-5c18-13 28-36 24-57c-2-8-6-18-11-27c-1-2-2-4-2-4c0 0-2-4-5-7c-2-3-4-6-5-8c-4-4-3-5 2-3c13 4 26 3 40-5c1 0 2-1 2-1c2 0 9-6 12-9c19-20 25-45 18-73c-3-12-14-30-24-41c-3-3-2-4 5-4c7 0 22-2 31-5c5-2 16-8 19-10c1-1 2-2 3-3c1 0 3-2 4-4c3-3 4-4 5-3zM429 634c0 0 0 1 0 2c-3 7-3 12-2 16c0 2 1 4 1 5c0 2 0 3 1 3c0 1-1 1-1 2c0 1-2 0-6-4c-8-7-16-14-23-18c-3-2-5-4-5-5c0-1 4-1 6 0c5 2 18 1 25-1c2-1 4-1 4 0zM725 634c5 2 19 3 25 1c7-2 9-1 4 3c-2 1-4 3-6 4c-2 2-4 3-5 4c-3 2-10 8-16 13c-2 2-4 4-4 4c-1 0-1-1-1-3c3-11 3-16 0-23c-2-4-1-4 3-3zM404 750c8 3 15 14 12 23c-2 5-9 8-14 6c-4-3-4-4 0-6c10-5 9-16-2-20c-6-2-12 1-17 8c-2 3-3 4-2 1c0-4 7-11 11-12c3 0 10 0 12 0zM760 751c5 2 11 9 11 12c0 2-1 2-2 0c-5-9-13-13-21-9c-5 3-7 7-5 13c0 2 3 4 6 6c4 2 4 3 1 5c-3 2-4 2-9 0c-12-3-7-24 6-27c3-1 11-1 13 0zM772 778c0 1 0 1 0 2c-1 0-1 1-1 2c0 1 0 2-1 3c0 1-1 2-1 3c-2 6-9 12-16 16c-4 1-5 2-6 1c-1-1 0-2 4-3c2-1 6-4 9-6c2-2 6-7 6-8c0 0 1-1 1-1c1-1 1-2 2-3c0-1 0-2 1-2c0-1 1-2 1-2c0-1 0-3 1-3c0 0 0 1 0 1zM381 781c0 1 0 2 1 3c1 2 1 4 0 4c-1 0-2-3-3-7c0-2 1-2 2 0zM390 796c1 1 6 5 7 6c1 1-1 0-4-1c-2-1-3-2-3-3c-2-2-2-3 0-2zM735 806c1 0 1 0 0 1c-1 0-8 0-10 0c0 0-1-1 0-1c1-1 9 0 10 0zM540 806c2 1-1 4-4 3c-2 0-4-1-4-2c1-1 5-2 8-1zM621 807c2 2-5 4-7 2c-2-1-2-2 0-3c1-1 6 0 7 1zM580 807c2 0-1 3-4 3c-1 0-4-2-3-3c0-1 5-1 7 0zM441 809c2 1 2 2 0 3c-2 1-3 1-4 0c-2-2 1-3 4-3zM715 810c1 0 1 2 1 2c-1 1-5 0-5-1c0-2 3-3 4-1zM570 811c1 1 1 2-1 4c-2 4-2 5-2 5c0 1-1 3-2 4c-1 1-2 1-4-2c-1-1-2-2-8-8c-4-4-3-4 8-4c9 0 9 0 9 1zM602 811c1 0 1 1-3 4c-2 1-4 4-6 6c-4 5-5 5-6 1c0-1-2-4-3-6c-2-4-2-5 0-6c2 0 18 0 18 1zM430 812c1 1-2 2-2 2c-1-1-1-2 0-2c2-1 2-1 2 0zM419 812c2 2-2 6-7 6c-5 0-3-5 2-6c3 0 4 0 5 0zM541 813c8 3 22 18 23 24c1 3 4 9 6 13c3 3 3 4 1 6c-1 1-2 2-2 3c-2 2-5 4-5 4c-1 0-1-1-1-2c1-2 2-6 1-9c0-6-6-13-13-17c-4-2-5-2-3-7c0-2 0-5-1-7c-4-6-14-4-15 3c0 3 0 3-1 3c-3 1-5-6-3-10c3-4 8-6 13-4zM622 813c4 3 5 9 3 13c-2 2-3 2-3-1c-1-4-1-5-4-6c-7-4-14 1-12 9c1 5 1 5-4 7c-6 3-12 10-13 16c0 2 0 7 1 9c0 2 0 4 0 4c-1 0-3-2-4-3c0 0-1-2-2-4c-3-3-3-4-1-8c3-4 5-7 6-11c2-9 16-23 24-25c4-1 6-1 9 0zM740 812c4 1 5 5 2 6c-1 0-6-1-7-3c-2-2 1-4 5-3zM502 816c6 2 12 7 12 10c0 3-5 5-9 3c-10-5-17-7-24-4c-3 1-3-1 0-3c5-5 14-7 21-6zM578 816c1 1 5 10 5 14c1 7-3 18-6 18c-2 0-5-4-6-10c-2-6-1-11 2-18c2-3 3-4 5-4zM661 817c5 0 12 4 13 7c1 1 0 1-3 1c-6-2-11-2-17 1c-1 1-3 2-3 2c-1 1-6 2-7 1c-8-1-3-10 7-12c2-1 7-1 10 0zM429 818c0 1 0 2-1 3c-1 1-3 5-4 7c-2 5-8 7-8 4c0-6 11-19 13-14zM729 818c1 1 2 2 2 2c1 1 2 2 2 2c1 2 3 5 4 7c1 4-1 8-2 5c-1-1-1-2-2-2c-2 0-2-1-3-4c-2-3-2-4-4-7c-3-4-1-6 3-3zM617 821c2 2 3 6 1 6c-1 0-1-1-2-2c-1-4-2-4-5-2c-2 2-3 0-1-2c1-1 5-1 7 0zM543 821c1 0 1 1 1 2c0 1-1 1-3-1c-2-1-3 0-3 2c-1 2-3 3-4 2c-1-3 5-6 9-5zM454 827c0 0-1 0-3 1c-1 1-3 4-3 6c0 1 2 3 4 4c2 0 2 2-1 2c-4-1-7-5-5-9c1-2 7-6 8-4zM492 827c2 1-1 2-5 2c-3 0-3 0-2-1c1-1 5-2 7-1zM669 827c1 1 1 2-1 2c-2 0-5-1-5-1c-1-1 4-2 6-1zM704 828c5 3 5 9 0 11c-2 1-3 1-3 1c-1-1-1-2 1-2c4-2 4-6 0-9c-2-2-1-3 2-1zM459 832c3 3 1 7-2 4c-1-1-2-1-2-1c-3 0-4-2-2-4c2-1 4-1 6 1zM700 832c2 1 1 3-1 3c-1 0-2 1-3 1c-2 1-3 1-3-1c0-4 5-6 7-3zM490 832c9 0 17 6 18 12c0 7-7 6-14-2c-4-3-5-4-9-6c-4-2-4-3-2-4c1-1 1-1 3 0c0 0 2 0 4 0zM671 832c1 1 1 2-2 4c-4 2-6 3-9 6c-10 10-18 8-11-3c1-3 6-6 11-7c4 0 11 0 11 0zM540 833c2 0 0 1-2 1c-2 0-3 0-1-1c2-1 2-1 3 0zM616 833c1 1 1 1 1 1c-2 1-4 0-4-1c0-1 2-1 3 0zM463 842c0 1-1 2-1 2c-1 0-1-1 0-2c0-1 1-1 1 0zM547 845c1 1 2 2 3 2c1 1 2 2 2 2c1 0 2 4 1 6c-1 4-8 6-10 4c-1-1-1-2 1-2c6 0 8-6 3-9c-2-1-7-1-8 0c-2 1-3 1-3 0c0 0 2-2 2-2c1 0 1 0 2 0c1-2 3-2 7-1zM613 845c3 1 7 5 7 8c0 2-1 2-1 0c-2-6-9-8-14-3c-4 3-1 7 4 7c3 0 3 0 2 2c-5 4-14-4-11-9c2-2 9-6 11-6c0 1 1 1 2 1zM480 850c1 1 1 2 0 2c-1 1-1 1-1 0c-1 0-1 0-2 0c-2-2-6 3-4 5c1 2 0 3-1 1c-2-2-2-4 0-5c2-3 3-3 7-4c0 0 0 1 1 1zM546 851c2 2 2 3-2 3c-2 0-4 0-5 1c-2 0-1-4 2-5c2-1 3-1 5 1zM678 850c2 1 4 3 4 4c-1 1-1 1-1 0c-1-2-3-3-6-2c-2 1-3 0-1-2c1-1 1-1 4 0zM613 850c1 1 2 3 3 4c0 2-1 2-2 1c0-1-2-1-4-1c-3 0-5-1-3-2c1-2 4-3 6-2zM480 856c1 1 1 2 0 2c-2 1-5-2-4-3c1-1 3 0 4 1zM677 855c1 2 0 3-2 3c-2 0-2 0-2-2c1-1 3-2 4-1zM578 860c2 0 4 3 3 4c0 0-2 0-5 0c-5 0-5 0-3-3c2-2 3-3 5-1zM579 867c3 2 5 11 2 19c0 2 0 3 0 5c0 1 0 1-1 2c0 1-1 2-1 2c-2 3-3 3-5 0c0-1-1-2-1-2c-1-1-1-2-1-3c1-1 1-2 0-6c-4-10 1-20 7-17zM586 870c3 3 4 9 1 11c-1 1-2 0-2-3c0-2 0-5 0-6c0-3 0-3 1-2zM568 873c0 1 0 2 0 3c0 1 0 2 0 3c0 0-1 1-1 1c-1 1-2-1-2-2c0-6 2-10 3-5z"/><path d="M419 65c-2 0-4 0-5 0c0 1-2 1-5 1c-4 0-13 2-13 2c0 0-2 0-5 0c-6 1-9 2-9 4c0 2 1 2 6 3c3 1 7 1 9 2c2 1 5 1 7 1c1 1 3 1 3 1c1 0 3 1 5 1c4 1 10 2 13 3c2 0 5 1 7 1c7 1 11 2 14 3c2 1 4 1 5 1c0 0 3 0 5 1c3 1 6 1 7 1c1 0 4 1 6 1c1 1 5 1 7 1c2 0 5 1 7 1c10 2 12-2 7-9c-5-7-12-11-22-14c-8-3-11-3-25-5c-5 0-16 0-24 0zM442 70c7 0 10 1 15 2c13 2 21 6 26 11c5 5 2 6-7 4c-2 0-6-1-8-1c-2 0-4-1-5-1c-1 0-4-1-5-1c-2 0-5-1-7-1c-2-1-4-1-5-1c-1 0-3-1-4-1c-5-1-12-2-15-3c-2 0-4-1-5-1c-2 0-4-1-6-1c-2 0-5-1-6-1c-1 0-4-1-5-1c-7-1-4-3 5-4c12 0 23 0 32 0z"/><path d="M711 65c-27 1-45 9-52 21c-3 6-1 8 7 7c1 0 5 0 8-1c3 0 6 0 7-1c1 0 4 0 6-1c5 0 12-2 17-3c2 0 4-1 5-1c1 0 3 0 5-1c6-1 14-3 16-3c2 0 4-1 5-1c1 0 3-1 4-1c1 0 3 0 4-1c1 0 4-1 5-1c2 0 4-1 5-1c2 0 4-1 5-1c1 0 3 0 4-1c1 0 3 0 4-1c2 0 3-2 2-3c0-1-3-2-8-3c-2 0-5 0-5 0c0 0-2-1-5-1c-13-2-29-3-39-2zM742 70c8 1 10 3 4 4c-2 0-4 1-6 1c-2 0-5 1-6 1c-3 1-9 2-14 3c-1 0-3 1-5 1c-1 0-4 1-6 1c-1 0-5 1-7 1c-11 2-13 3-15 3c-1 0-3 1-5 1c-2 0-4 1-5 1c-4 1-10 1-11 1c-3-2 3-8 11-11c4-2 12-4 16-5c2 0 4-1 5-1c5-1 32-2 44-1z"/><path d="M354 78c-3 2-2 5 1 6c2 2 6 6 8 9c4 8 3 14-5 20c-4 3-5 3-9 5c-1 1-2 1-2 3c0 1 0 2 4 4c9 5 18 15 19 20c2 7-6 14-16 16c0 0-2 1-2 1c-1 0-1 0-2 0c-3 0-4 4-2 6c2 0 2 0 5 0c1-1 5-1 8-1c22-2 37-12 40-28c2-7 1-11-2-21c-3-8-13-21-22-27c-4-4-8-6-13-9c-3-1-6-3-7-3c-1-1-2-1-3-1zM372 92c10 7 20 21 23 32c4 16-3 28-20 35c-5 2-7 2-4-2c9-9 5-20-12-32c-4-3-4-4-2-6c13-7 16-15 12-25c-2-4-1-4 3-2z"/><path d="M795 79c-4 0-17 8-21 11c-2 2-3 3-4 4c-13 9-22 27-21 40c1 18 15 30 40 33c3 0 6 0 8 0c4 1 6 0 7-1c1-2 0-3-7-4c-18-6-21-15-11-26c3-2 12-10 14-12c5-2 5-4 0-7c-18-9-19-19-5-32c1-1 3-2 3-3c2-2-1-4-3-3zM783 92c0 0 0 1-1 3c-4 8-1 17 9 23c5 3 5 4 0 7c-5 3-13 12-15 18c-2 6-1 9 5 15c3 5-9 1-17-5c-13-10-13-29 0-45c3-5 5-7 9-11c6-5 9-7 10-5z"/><path d="M295 81c-3 1-3 3 1 6c6 5 13 13 19 24c3 7 3 7 10 7c16-1 27-6 31-13c5-10-7-17-38-22c-3 0-8-1-10-1c-2 0-5-1-6-1c-3 0-6-1-7 0zM311 87c2 1 5 1 7 1c1 1 3 1 4 1c1 0 3 1 5 1c6 1 17 5 20 6c6 3 6 5 2 9c-3 4-9 6-19 7c-8 1-8 1-12-6c-3-6-6-10-10-14c-4-4-4-5-3-5c1-1 1-1 6 0z"/><path d="M851 81c-1 0-5 1-8 1c-4 0-8 1-9 1c-2 0-5 1-6 1c-2 0-4 1-5 1c-1 0-2 1-4 1c-7 1-18 5-22 8c-3 3-4 6-3 10c3 8 15 13 32 14c7 0 6 0 11-9c4-7 6-10 9-13c3-3 6-7 9-9c3-3 4-4 2-6c-1-1-2-1-6 0zM846 87c1 1 1 1-2 4c-6 5-8 9-12 16c-3 5-4 6-8 5c-2 0-5 0-6 0c-11-2-21-8-19-12c1-3 11-7 26-10c3-1 5-1 5-1c0 0 2 0 3-1c2 0 5 0 7-1c5-1 5-1 6 0z"/><path d="M379 82c-3 2-2 5 3 7c3 2 8 5 12 8c6 5 7 6 11 10c6 6 10 12 12 17c2 7 1 17-2 25c-1 1-1 2-2 3c0 0-1 2-2 3c-2 4-2 5-2 6c1 2 3 2 5 2c10-2 23 0 26 4c2 3 2 6 1 9c-2 2-2 2-4-1c-3-5-6-7-13-7c-9 0-13 4-16 14c-5 20 11 35 35 32c14-1 26-13 29-27c0-1 0-3 1-4c1-6 0-20-3-30c-2-8-7-18-12-23c0-1-2-3-3-4c-6-8-17-17-31-25c-6-3-13-7-14-7c0 0-2-1-3-1c-2-1-4-2-5-2c-8-4-14-6-18-8c-3-1-4-1-5-1zM405 97c2 1 12 6 17 9c21 12 35 27 41 43c5 14 6 31 2 41c-1 1-1 3-1 3c0 2-6 8-9 11c-16 11-41 4-42-13c-1-11 4-18 12-18c6 1 9 4 9 10c-1 1-1 2-1 3c0 5 4 6 7 2c7-11 9-16 6-22c-3-6-9-9-21-9c-8 0-8-1-6-6c7-12 6-26-1-36c0-1-1-2-2-3c-1-2-6-8-11-12c-4-3-4-4 0-3z"/><path d="M768 83c-1 0-2 1-3 1c-1 0-2 1-3 1c-1 1-5 2-11 5c-6 2-9 3-16 7c-9 4-20 11-23 14c-1 1-2 2-3 2c-4 3-12 11-16 15c0 1-1 2-2 3c-8 11-13 25-13 39c-1 13 1 22 7 30c9 14 29 19 45 11c2-1 8-6 8-6c0 0 1-1 1-2c7-9 5-29-4-33c-8-4-18-1-22 5c-2 4-4 2-4-3c0-7 10-11 23-10c7 1 8 1 8 0c2-1 2-3 0-5c-8-15-10-26-4-37c4-9 16-20 30-29c6-4 7-5 7-6c0-2-3-4-5-2zM749 97c1 0 0 1-3 3c-19 16-24 31-15 50c3 7 3 7-5 7c-20 0-28 11-19 25c5 8 7 9 9 8c2-1 2-2 1-5c-1-7 2-11 9-12c7 0 10 3 12 12c2 11-4 20-17 23c-17 5-32-5-36-22c-4-14 0-38 10-51c0-1 1-2 2-3c5-8 15-16 28-24c6-4 8-5 13-7c9-4 11-5 11-4z"/><path d="M250 84c-1 0-3 1-4 1c-2 0-4 1-5 1c-14 2-41 14-59 28c-3 2-6 4-7 5c-4 3-6 5-8 6c-5 3-2 8 4 6c2-1 14-3 29-5c15-2 32 2 46 10c2 2 3 2 6-1c5-3 6-3 4 2c-6 13 7 26 22 23c20-4 31-18 28-37c-2-17-18-34-35-37c-2 0-4-1-5-1c-2-1-13-1-16-1zM265 90c19 2 37 20 36 39c0 11-4 17-16 23c-14 7-26 1-25-11c1-9 9-12 19-8c4 2 6 1 7-1c0-2-6-8-10-10c-6-2-16 1-24 7c-3 2-3 2-10-1c-19-9-32-10-59-4c-3 0-4 0-4-2c1-1 6-4 14-9c2-2 4-3 5-4c2-1 15-8 16-8c1 0 2-1 4-2c1-1 3-2 5-2c1 0 2-1 4-2c3-1 8-2 10-3c1 0 3-1 5-1c5-1 12-2 23-1z"/><path d="M888 84c-14 2-27 9-36 20c-2 3-6 12-7 14c0 1 0 3 0 4c-2 8 0 18 4 24c7 10 23 16 33 14c11-3 17-14 13-24c-2-4-1-5 2-2c5 3 5 3 11 0c13-5 17-7 26-8c6-1 18 0 32 3c1 0 4 0 7 1c2 0 5 1 6 1c3 1 5 1 6 0c2-2 1-4-3-7c-1-1-3-2-5-4c-13-10-23-17-36-23c-10-5-25-10-32-11c-1 0-3-1-4-1c-3-1-14-1-17-1zM905 90c7 1 18 5 24 7c12 5 17 8 34 19c5 3 9 6 9 7c0 1-1 1-8 0c-15-3-22-3-33-2c-7 1-14 3-25 8c-4 2-4 2-8-1c-12-8-23-9-30-1c-5 5-3 9 3 7c12-6 21-1 20 10c-2 13-17 14-32 4c-18-12-9-45 16-55c8-3 21-4 30-3z"/><path d="M422 89c-3 1-2 3 4 7c4 3 7 5 9 7c1 0 3 2 5 4c23 18 36 36 44 56c0 2 1 4 1 4c1 2 2 5 3 10c2 8 3 14 5 25c1 1 1 3 1 4c0 2 1 4 1 5c0 7 4 9 6 3c4-7 14-11 18-7c2 2 1 4-3 3c-3-2-7-1-11 3c-3 4-3 5-3 10c0 4 0 4-2 2c-1-1-2-1-4-1c-1 1-1 2-1 8c0 6-1 10-2 15c0 2 0 5 0 7c-2 8-5 22-8 29c0 2-1 3-1 4c0 2-1 4-3 8c-1 3-10 20-18 36c-2 4-3 6-9 14c-11 16-22 42-25 58c0 1 0 3-1 5c-5 24 1 56 14 78c4 7 4 7 9 13c5 6 14 15 20 20c1 1 3 2 4 3c12 9 33 15 48 13c22-2 38-17 41-37c5-25-9-46-36-53c-12-3-26 1-35 10c-9 10-10 26 0 35c9 10 20 7 27-7c2-5 4-4 4 2c1 4-1 6-6 11c-13 13-33 5-38-16c-4-17 8-34 28-42c6-2 6-5 0-7c-24-8-40-28-43-52c-2-17 3-48 10-57c0-1 2-4 3-7c5-9 8-12 23-28c9-9 13-13 20-22c5-7 6-8 8-10c0-1 1-3 2-4c4-6 10-20 11-27c0-1 1-3 1-3c2-6 3-32 2-35c-1-2-2-2-3-2c-2 0-2 2-2 6c-1 3-1 5-2 5c0 0 0-1-1-7c-2-14-8-30-18-42c-1-1-3-3-3-4c-2-3-12-12-16-15c-2-2-4-4-6-5c-3-3-11-8-18-12c-7-4-20-10-25-12c-1 0-3-1-4-2c-2 0-4-1-6-2c-1 0-4-1-5-2c-7-2-8-3-10-3c-1-1-3-1-4 0zM446 101c1 1 3 1 3 1c0 0 16 8 19 10c2 1 4 2 5 3c2 1 4 2 6 3c1 1 3 2 3 2c1 1 2 2 3 2c2 1 4 3 5 4c27 20 42 46 42 73c1 15-5 28-14 31c-7 2-14-6-11-12c4-6 8-6 9 0c0 5 3 6 6 1c5-11 2-19-8-19c-2 0-7 2-9 3c-5 5-6 4-6-1c-1-9-6-32-9-37c0-1-1-3-2-5c-6-17-17-33-34-47c-6-6-8-7-9-8c-7-5-7-7 1-4zM532 224c0 3-5 10-9 12c-3 2-7 2-9 0c-2-1-2-1 1-1c6-1 12-5 14-9c1-1 3-3 3-3c0 0 0 1 0 1zM504 236c0 0 2 1 3 2c7 6 15 5 22-1c2-2 4-3 4-2c0 0-1 4-2 5c0 1-1 2-2 3c-3 6-11 17-16 23c-3 4-10 11-11 12c0 1-1 2-2 4c-2 1-4 3-5 5c-7 7-8 8-6 1c3-8 4-11 4-13c1-1 2-4 2-7c1-3 2-6 2-8c0-1 1-4 1-6c1-3 1-7 1-12c1-8 1-9 5-6zM461 347c0 1 0 4 0 6c-1 8-2 10-2 15c-1 29 15 55 40 65c2 1 3 2 2 3c-1 1-1 1-1 1c-1 0-2 1-4 2c-20 12-27 32-18 50c8 18 28 24 41 13c12-9 13-15 7-30c-3-6-7-6-8 0c-1 7-6 15-10 18c-9 4-19-8-17-21c2-12 18-21 33-19c17 3 30 13 34 29c2 5 2 16 0 20c0 2-1 3-1 3c0 1-2 6-3 8c-5 8-13 15-20 17c0 0-2 0-2 1c-6 3-22 3-31 0c-13-4-16-5-23-11c-2-1-4-3-4-3c-9-6-17-15-24-26c-3-4-10-17-10-18c0 0 0-1 0-2c-6-10-9-38-7-52c0-1 1-4 1-7c2-17 10-37 21-56c5-9 7-10 6-6z"/><path d="M724 89c-1 0-3 1-4 1c-1 1-4 2-7 3c-3 1-6 2-7 3c-2 0-6 2-11 4c-1 1-3 1-4 2c-6 2-18 9-22 12c-1 0-4 2-5 3c-10 6-16 12-25 21c-6 6-8 9-14 19c-2 2-5 9-7 13c-2 6-4 16-5 25c0 5 0 6-1 6c-1 0-1-2-1-8c0-8 0-9-2-9c-4 0-5 5-4 20c2 16 6 30 11 39c0 1 1 3 1 4c2 2 3 4 8 12c1 1 3 3 4 5c1 1 2 3 3 4c2 2 5 6 10 11c2 3 7 7 10 10c3 4 7 8 9 10c4 5 6 7 8 10c0 1 1 2 2 3c3 5 8 17 10 22c6 23 6 47 0 61c-2 6-6 13-7 14c0 0-1 1-1 1c-3 6-20 18-29 21c-2 1-5 2-5 2c-2 2 0 5 4 5c6 2 18 11 23 18c12 18 1 46-20 46c-8 0-18-8-19-15c-1-7 1-10 4-4c7 14 18 17 27 8c11-11 9-31-5-39c-14-10-27-10-43-2c-35 18-31 69 6 83c16 6 40 2 56-8c13-9 30-26 35-37c1-1 2-2 2-3c6-8 12-25 14-41c2-14 0-40-5-54c0-1-1-3-2-5c0-2-1-4-2-5c0-1-1-4-2-6c-3-7-9-21-13-26c-1-1-2-3-3-4c0 0-2-2-3-4c-2-3-5-8-5-8c0 0-1-2-1-3c-1-1-2-3-2-4c-1 0-1-1-2-2c-2-5-11-23-13-26c-4-9-7-22-10-32c0-3-1-7-1-9c0-1-1-3-1-5c0-2-1-5-1-7c0-2 0-4-1-6c0-2 0-4 0-5c0-5 0-8-1-8c-1-1-3-1-4 0c-2 2-2 1-2-2c0-9-8-16-15-13c-2 1-3 1-3-1c0-3 5-5 10-3c4 2 6 4 10 10c1 3 5 1 5-3c0-1 0-2 0-3c0-1 1-3 1-3c0-1 0-3 0-5c1-2 2-5 2-7c1-8 4-20 7-28c2-8 5-14 10-23c5-9 17-22 28-32c2-1 5-3 6-5c3-2 6-5 11-9c1 0 3-2 4-3c4-2 5-3 5-4c0-3-3-4-6-2zM711 100c0 0-1 2-3 4c-3 2-6 4-11 8c-5 4-14 14-16 16c-1 2-3 4-4 6c-6 7-14 22-17 33c-2 6-4 12-4 15c0 1-1 2-1 2c0 0 0 3-1 5c0 3-1 6-1 7c0 2-1 4-1 5c0 6-1 7-5 4c-9-8-21-5-21 6c1 2 1 3 2 7c3 6 6 6 7 0c0-3 1-4 2-4c4-1 7 3 7 8c0 5-8 10-13 7c-8-5-13-16-13-32c0-8 1-11 4-22c2-7 9-19 13-24c1-1 2-3 3-3c2-4 15-16 19-19c0 0 2-1 3-2c2-2 6-5 11-8c2-2 5-3 6-4c1 0 3-2 4-2c2-1 4-2 4-2c3-2 14-8 18-9c1-1 3-1 4-2c2-1 3-1 4 0zM618 220c0 1 1 2 1 2c4 8 11 13 18 13c3 0 3 0 0 1c-7 3-14-1-19-11c-2-4-2-7 0-5zM621 236c5 5 7 6 12 6c6 0 7-1 15-7c2-2 3 0 3 5c0 4 1 12 2 17c0 1 1 4 1 5c1 4 5 19 7 25c2 4 2 6 0 5c-1-1-9-9-12-13c-1-1-3-3-4-5c-2-2-4-4-12-14c-7-8-16-23-16-26c0-1 1-1 4 2zM690 345c3 1 15 24 19 35c0 2 1 4 1 5c1 1 2 5 4 10c3 13 5 29 4 39c0 3 0 6 0 6c0 0-1 2-1 5c0 3-1 6-1 7c0 1-1 3-1 4c-1 3-2 7-3 10c-3 8-5 12-8 16c-1 2-2 4-2 4c-3 5-8 11-12 15c0 1-1 2-2 3c0 0-4 4-9 8c-24 22-59 24-76 6c-18-18-15-49 6-62c7-4 19-7 24-6c7 1 12 2 18 6c8 5 11 18 7 26c-4 6-8 9-13 8c-5-1-11-9-13-18c-1-5-4-7-6-3c-8 15-6 25 6 33c17 12 38 2 44-20c4-17-5-34-22-44c-6-3-6-3 0-6c17-8 28-20 33-36c4-10 5-24 4-35c0-1-1-4-1-6c0-2 0-4-1-4c0-1 0-5 0-6c0 0 0 0 1 0z"/><path d="M321 122c-2 0-2 1-3 10c-1 5-3 15-4 18c-3 9-3 9 12 10c19 0 23-1 35-6c7-4 7-4 4-11c-5-10-15-17-27-20c-10-2-15-2-17-1zM330 127c1 0 3 1 4 1c9 1 19 6 24 13c5 6 4 8-2 10c-8 3-14 4-29 3c-9 0-9 0-7-8c1-4 3-13 3-15c0-4 2-5 7-4z"/><path d="M822 122c-20 3-31 10-37 23c-2 5-1 6 9 11c7 3 20 5 24 4c0 0 4 0 9-1c12 0 12 0 10-7c-1-6-4-18-5-25c-1-6-2-6-10-5zM825 127c1 0 2 2 3 6c0 2 1 7 2 11c2 11 3 10-12 10c-13 0-14 0-23-3c-7-2-7-3-3-9c5-7 10-11 21-13c8-2 11-3 12-2z"/><path d="M212 135c-3 1-7 1-13 3c-1 0-5 1-8 2c-6 1-7 1-7 3c-2 2 0 4 4 5c2 0 6 1 10 3c10 5 10 12 2 28c-3 6-4 8-2 9c1 1 4 0 7-2c1-1 4-3 6-4c17-12 28-31 24-40c-3-6-10-8-23-7zM227 141c7 4 2 19-13 32c-6 5-8 6-6 2c3-11 4-13 3-17c-1-5-5-9-10-11c-6-3-4-4 15-7c3 0 9 0 11 1z"/><path d="M926 135c-21 3-11 30 17 49c6 4 7 5 9 4c2 0 2-2-1-8c-8-16-8-24 1-28c2-2 7-4 11-5c3 0 4-1 4-3c0-2-1-3-6-4c-3-1-6-1-7-2c-1 0-3 0-5-1c-3 0-5-1-6-1c-4-1-13-2-17-1zM940 141c14 2 16 3 9 6c-10 6-12 12-7 26c3 6 1 5-6 0c-13-14-19-27-13-31c3-2 7-2 17-1z"/><path d="M147 153c-5 1-8 6-9 10c0 4 3 5 7 3c3-2 8-4 12-6c5-1 7-3 5-5c-2-2-11-3-15-2z"/><path d="M993 153c-6 2-6 5-1 7c1 0 3 1 5 2c2 1 4 1 5 2c7 3 8 3 9 2c3-3-1-10-5-12c-2-1-10-2-13-1z"/><path d="M246 158c-1 1-3 3-5 4c-1 2-5 5-7 7c-3 4-3 4-3 5c0 3 2 3 8 2c3-1 14-3 16-3c8-1 9-4 2-10c-6-5-9-6-11-5zM251 164c3 3 2 4-4 5c-5 1-6 0-2-4c2-2 4-2 6-1z"/><path d="M899 159c-2 1-9 8-10 9c-1 3 1 4 11 5c5 1 10 2 13 3c7 2 10-1 5-6c-1 0-4-3-7-6c-6-7-8-8-12-5zM904 164c3 2 5 5 3 6c-1 0-7-1-8-2c-1-1-1-2 1-3c1-2 3-2 4-1z"/><path d="M398 164c-2 1-4 2-4 2c-1 0-3 1-4 1c-7 3-25 6-38 6c-5-1-5-1-6 0c-2 3-1 4 5 7c2 1 6 4 10 6c3 3 6 5 7 5c1 1 2 2 4 3c1 1 3 2 4 3c6 4 20 18 24 23c1 1 3 4 5 6c1 2 3 4 4 5c1 2 2 4 3 5c0 1 1 2 1 3c0 0 1 1 2 2c1 3 1 5-1 5c-2 0-3 2-3 5c2 7 2 22 1 27c-1 4-6 14-10 21c-1 2-3 5-3 6c-1 2-3 4-3 5c-9 15-14 26-15 35c0 3 0 5 1 11c0 4 1 5 3 8c5 7 7 8 15 3c9-5 18-21 22-36c4-18 4-33 1-53c-1-5-4-17-4-20c-1-3-1-7-1-7c1 0 2 2 3 4c2 4 6 14 7 17c8 19 13 23 24 17c7-4 14-13 22-28c4-7 8-19 10-27c0-1 0-3 0-4c1-2 1-4 1-6c2-13 2-12 1-14c-2-2-4-1-6 3c-5 8-14 17-21 21c-12 7-28 5-41-4c-1-1-3-2-3-3c-4-3-10-10-11-13c-7-20-7-31-1-44c3-6 1-9-5-6zM396 172c1 0 0 1 0 4c-4 10-4 15-1 28c2 5 0 4-7-3c-7-7-15-13-24-18c-9-5-9-6 3-6c4 0 9-1 10-1c6-1 9-2 12-3c5-2 6-2 7-1zM480 224c0 1 0 2 0 3c0 2-1 4-1 5c0 1-1 3-1 4c-1 1-1 4-2 6c-5 14-11 26-17 33c-1 2-2 3-2 4c-1 1-6 5-9 6c-3 2-6 2-7 0c-2-2-11-22-11-24c0 0-1-1-2-3c-1-1-2-4-3-6c-1-2-2-5-3-7c-4-8-4-9 1-6c11 5 21 7 29 4c1 0 2-1 3-1c5-1 15-9 22-17c2-3 3-3 3-1zM418 283c2 5 2 27 1 34c-2 12-4 19-7 26c-3 7-8 15-11 17c-1 0-2 1-3 2c-4 3-7 3-9-2c0 0-1-2-1-3c-2-4-2-13 0-19c3-7 5-12 10-21c1-2 3-5 4-6c4-7 5-9 9-17c2-4 4-8 4-10c1-3 3-4 3-1z"/><path d="M747 163c-1 1-1 3 1 7c6 14 6 25-1 43c-2 6-8 12-16 18c-9 6-20 9-29 7c-11-2-25-14-31-25c-1-3-2-3-4-3c-3 0-3 1-2 14c3 17 10 37 19 49c1 2 2 3 2 4c7 9 17 16 24 14c4-1 9-9 15-25c2-5 6-15 7-16c1 0 1 3 0 7c-1 4-3 13-3 14c0 1 0 4-1 6c-1 4-1 9-2 17c0 4 0 19 0 22c0 2 1 4 1 6c2 15 9 32 17 40c12 12 19 11 24-4c3-7 2-19-3-29c0-1-1-3-2-4c0-1-2-4-3-6c-2-3-3-6-4-7c-1-2-2-3-2-4c-1 0-2-2-3-4c-2-4-3-6-5-10c-7-12-9-17-8-28c0-3 0-8 0-10c2-8 1-10-2-10c-1 0-1 0-2 0c0-1 1-4 2-6c1 0 2-2 3-4c2-3 5-8 8-11c1-2 3-4 4-5c4-5 9-10 18-18c4-3 11-9 16-12c2-2 4-3 5-4c3-2 9-5 12-7c3-2 4-2 4-4c0-1-2-2-3-2c0 0-4 0-9-1c-16 0-34-4-43-9c-1 0-3-1-4 0zM761 173c8 3 12 3 22 4c13 0 13 0 3 7c-2 1-4 2-5 2c0 1-2 2-3 3c-1 0-3 2-4 2c-2 2-7 6-13 12c-6 6-7 6-5 0c2-9 2-18 0-26c-2-4-2-5-1-6c1 0 1 0 1 0c0 0 2 1 5 2zM674 226c15 16 30 22 45 16c4-1 5-2 10-4c4-2 4-1-1 10c-3 5-5 10-6 11c0 0-1 3-3 6c-9 22-10 22-14 21c-12-3-24-23-32-52c-3-10-3-13 1-8zM734 282c0 0 1 2 2 4c1 4 8 17 13 24c13 22 18 36 14 47c-3 9-6 9-14 2c-13-13-19-35-18-66c1-11 1-13 3-11z"/><path d="M161 164c-7 2-17 6-21 10c-2 3-6 9-6 11c0 0 0 1-1 2c-3 6 0 8 6 4c15-9 21-8 21 3c0 8-1 9-4 4c-6-12-19-6-24 13c-2 6-12 28-17 35c-2 2 0 6 2 6c1 0 3-2 5-4c1-1 6-6 16-16c8-7 14-13 17-18c1-2 2-2 3-1c3 0 4 0 8-3c1-1 3-3 5-5c2-1 5-4 7-6c11-11 11-29 0-34c-4-1-11-1-17-1zM173 170c4 2 5 2 6 5c2 4 1 10-2 16c-1 1-2 3-3 4c-1 2-7 8-8 8c-2 1-2 0-1-5c3-16-5-22-19-15c-7 3-7 1-1-6c7-7 19-10 28-7zM150 199c6 3 5 8-3 18c-3 3-15 15-17 16c-3 3-3 1 0-4c3-6 4-7 5-9c1-1 1-3 1-4c1-2 4-10 5-13c3-6 5-7 9-4z"/><path d="M978 164c-16 3-18 22-4 37c2 2 4 3 10 8c0 0 2 1 3 2c3 2 4 2 5 1c2 0 2 0 5 3c4 7 9 12 18 20c5 4 9 7 10 9c7 7 9 9 11 7c1-2 1-3-2-9c-4-6-8-14-12-21c-1-2-2-6-3-10c-4-10-7-15-11-17c-5-3-11-1-14 5c-3 5-4 3-4-5c0-5 1-8 4-9c3-1 12 2 19 7c3 2 5 1 5-2c-2-16-21-28-40-26zM990 170c7 1 12 3 16 8c6 5 6 8 0 5c-15-7-22-2-20 14c0 8-1 8-7 1c-13-15-11-27 3-29c4 0 4 0 8 1zM1005 197c3 2 5 5 9 16c2 7 2 8 8 17c3 6 2 6-6-1c-14-12-19-19-19-25c0-4 5-8 8-7z"/><path d="M290 177c-3 0-9 0-12 1c-2 0-4 0-6 0c-4 1-6 2-6 4c0 2 1 2 3 3c10 3 24 14 24 19c0 5-12 9-29 10c-7 0-9 1-8 3c1 1 4 3 7 3c2 1 12 4 14 5c0 1 2 1 4 2c8 4 12 6 19 11c3 2 12 10 13 13c1 1 2 2 3 4c1 1 3 4 5 7c2 2 4 5 5 6c3 5 8 13 8 15c1 2 4 3 6 2c0-1 1-1 1-7c0-6 0-7 3-12c5-8 12-12 15-10c1 1 0 1-2 3c-11 5-16 23-9 35c9 16 32 16 46 0c9-10 13-21 12-36c0-16-5-30-15-42c-1-1-2-3-3-4c-3-4-14-14-21-18c-10-6-26-13-34-14c-1 0-3-1-3-1c-2 0-12-2-18-2c-3-1-19-1-22 0zM312 182c45 4 78 27 87 63c3 10 3 23 0 30c0 1-1 2-1 3c-6 16-26 27-39 20c-12-6-12-28 0-35c3-2 4-2 9-2c10-1 8-5-3-9c-4-2-11-2-14 0c-4 2-9 8-13 15c-3 5-4 5-6 2c-12-22-26-37-43-44c-1 0-3-1-5-2c-1-1-4-2-5-2c-6-2-6-3 2-5c9-1 15-4 17-8c2-6-3-14-13-20c-10-5-9-6 12-6c5 0 12 0 15 0z"/><path d="M838 177c-7 0-16 2-18 2c-8 2-11 3-14 5c-20 7-32 15-44 29c-5 6-11 16-14 23c-8 24-4 47 12 61c18 16 41 10 45-11c1-4 1-6 0-12c-1-6-6-13-11-15c-2-1-3-2-1-3c3-1 9 3 14 11c3 5 4 7 3 12c0 4 0 5 2 6c2 1 3 0 5-4c3-5 10-15 17-26c7-9 15-17 26-23c7-4 22-10 28-12c6-1 9-4 6-6c-1 0-3 0-8 0c-3 0-7-1-7-1c-1 0-4-1-6-1c-11-1-17-5-15-10c1-2 9-9 12-10c0-1 1-1 1-2c1 0 5-2 10-4c3-2 4-3 4-4c0-3-2-3-8-4c-2 0-5 0-8-1c-6 0-26-1-31 0zM867 182c7 1 7 2 1 5c-3 1-11 7-12 9c-8 10-2 18 14 20c5 1 6 2 6 3c0 0-1 1-1 1c-9 2-23 9-28 14c-10 7-19 19-27 32c-4 7-4 7-7 2c-7-14-14-19-25-17c-6 1-12 5-12 7c0 1 2 2 6 2c14 1 21 11 18 26c-2 13-17 19-31 11c-4-2-11-9-13-12c0-1-1-2-1-3c-11-18-5-48 13-69c5-5 14-13 19-15c1 0 2-1 3-2c5-4 24-10 32-11c1-1 3-1 5-1c7-2 28-2 40-2z"/><path d="M248 183c-2 0-3 1-4 1c0 0-2 0-3 0c-5 1-17 5-24 8c-3 1-5 2-5 2c0 0-4 1-7 3c-2 1-7 3-11 5c-4 2-13 7-15 8c-1 0-2 1-2 1c-1 1-4 3-8 5c-7 4-7 4-15 10c-3 2-6 4-7 4c-1 1-2 2-2 4c1 2 3 3 6 1c9-7 19-10 36-14c2 0 5-1 6-1c1 0 4 0 7-1c2 0 6-1 7-1c2 0 5 0 8-1c3 0 8-1 12-1c4 0 9-1 11-1c1 0 5-1 8-1c3 0 5-1 6-1c1 0 3 0 4-1c1 0 3 0 5-1c10-5 12-7 12-12c0-11-11-18-25-16zM259 189c5 1 7 3 8 7c2 6-3 10-16 12c-2 0-5 1-6 1c-1 0-4 1-7 1c-4 0-9 1-12 1c-3 0-8 1-11 1c-3 0-7 1-8 1c-1 0-4 1-6 1c-2 0-5 1-6 1c-1 0-3 1-5 1c-2 0-5 1-6 1c-3 1-8 2-8 1c0-1 1-2 15-9c12-6 18-8 25-11c1-1 3-1 4-2c16-6 30-9 39-7z"/><path d="M895 183c-9 1-15 5-17 13c-2 7 4 13 14 16c6 1 11 2 15 2c3 1 6 1 7 1c1 1 5 1 10 1c4 0 8 1 11 1c2 0 5 1 8 1c3 0 7 1 9 1c2 1 5 1 6 1c1 0 4 1 5 1c2 1 4 1 5 1c8 1 24 7 29 11c5 4 8 4 8 0c0-1-1-3-6-6c-2-1-5-3-6-4c-2-1-4-2-5-3c-1 0-5-3-9-5c-4-3-8-5-8-6c-3-2-27-13-27-13c-1 0-3-1-5-2c-14-6-24-9-37-11c-4 0-4 0-7 0zM907 189c6 2 10 3 13 3c4 2 7 3 9 4c0 0 1 0 3 1c1 0 2 1 9 3c1 1 3 2 4 2c13 6 32 16 31 17c-1 0-6-1-9-2c-2 0-4-1-5-1c-1 0-3 0-5-1c-2 0-5-1-7-1c-2 0-5-1-6-1c-1 0-5-1-8-1c-3 0-8-1-11-1c-3 0-7-1-10-1c-3 0-7-1-9-1c-2 0-5-1-7-1c-6-1-13-3-15-6c-3-3-1-9 4-12c3-2 13-2 19-1z"/><path d="M202 226c-3 0-7 1-8 1c-1 0-4 1-6 1c-3 0-6 1-7 1c-1 0-4 1-5 1c-2 0-4 1-5 1c0 0-2 1-4 1c-1 0-3 1-3 1c-1 0-2 0-3 1c-4 1-5 2-4 4c0 2 2 2 5 1c1 0 3-1 4-1c1 0 2-1 3-1c2-1 3-1 5-1c2 0 4-1 5-1c6-2 32-1 40 2c1 0 2 1 3 1c2 0 12 4 16 6c9 6 12 14 7 23c-1 3-5 8-6 9c-4 3-2 6 5 7c16 2 27 9 30 19c2 5 1 6-6 3c-8-5-17-4-24 2c-4 4-7 9-9 16c-4 16 4 32 19 35c1 1 2 1 4 1c8 3 26-2 34-8c0 0 1-1 2-1c7-4 15-15 19-23c13-29 0-62-34-83c-14-8-34-15-47-16c-1-1-4-1-6-1c-4-1-18-1-24-1zM236 233c4 1 7 2 7 2c1 0 2 1 3 1c2 0 4 1 6 2c2 1 4 1 5 2c2 0 4 1 8 3c3 2 11 6 13 7c0 1 2 2 4 3c16 11 27 27 30 43c5 30-20 59-49 58c-10 0-15-3-19-9c-8-12-4-31 8-36c6-3 15-1 20 4c7 7 10 4 8-9c-2-13-12-22-28-25c-7-1-7-2-3-8c10-15 2-30-21-36c-10-3-4-4 8-2z"/><path d="M932 226c-2 0-10 1-16 2c-3 0-9 2-11 3c-1 0-3 0-4 1c-3 0-7 2-12 4c-2 1-5 2-6 2c-2 1-9 5-11 6c-1 1-3 2-4 3c-8 5-17 13-23 21c-13 18-16 39-8 57c8 21 31 36 51 35c18-1 29-12 29-29c0-23-20-36-37-25c-4 2-5 2-4-2c2-12 12-18 31-21c8-2 8-3 4-8c-1-2-3-3-3-4c0 0-1-1-1-2c-4-5-5-12-3-16c3-5 10-11 17-13c1 0 3-1 3-1c7-4 40-7 47-4c1 0 4 1 5 1c2 0 4 0 5 1c0 0 2 1 3 1c2 0 3 1 4 1c3 1 5 1 6 0c1-2-1-4-4-5c-1-1-3-1-3-1c-1 0-2-1-3-1c-2 0-4-1-4-1c-1 0-3-1-5-1c-1 0-4-1-5-1c-1 0-6-1-16-2c-2-1-17-1-22-1zM927 232c1 1 0 1-3 2c-8 3-14 6-20 10c-7 6-8 18-3 26c5 7 5 7 0 8c-18 4-29 12-30 26c-2 12 0 16 6 10c15-13 33-5 34 15c1 18-11 27-31 25c-10-1-27-12-32-21c-1 0-2-2-2-3c-1-1-2-3-2-3c0 0-1-1-1-3c-3-7-4-12-4-20c0-4 0-8 0-9c0 0 1-2 1-4c3-10 9-19 17-28c7-8 20-16 30-21c5-2 11-4 11-4c1 0 2 0 3-1c8-3 24-6 26-5z"/><path d="M958 239c-18 1-28 6-35 14c-4 5-6 10-6 17c0 10 2 14 13 25c1 2 3 4 5 6c10 12 9 12 17 7c8-3 8-4 5-10c-4-7-8-16-8-20c0-4 1-10 3-14c4-8 18-16 29-18c6-1 6-6 0-6c-1 0-4 0-6 0c-6-1-15-2-16-2c0 0-1 0-1 1zM966 243c2 1 1 3-3 5c-12 5-19 15-19 28c0 7 0 10 5 19c1 3 3 6 3 6c0 2-5 5-7 3c0 0-1-1-2-2c-4-4-7-8-10-12c-7-7-9-10-10-14c-3-17 9-29 31-32c6-1 11-1 12-1z"/><path d="M183 239c-2 0-5 0-9 1c-7 0-9 0-9 2c-1 2 1 4 4 4c2 0 7 1 9 3c14 5 22 14 23 23c0 8 0 10-1 12c0 2-1 3-1 4c0 1-2 5-6 13c-2 3-1 5 3 6c1 0 3 1 4 2c5 3 5 3 6 2c2 0 3-1 5-5c1-1 5-5 8-8c12-13 13-16 14-25c1-12-2-20-13-27c-8-5-25-8-37-7zM197 244c3 0 6 1 6 1c1 0 3 1 4 1c6 1 14 7 16 11c5 6 5 7 5 13c0 9 0 9-16 28c-6 6-7 7-8 7c-2 0-5-3-5-4c0 0 1-3 4-9c2-3 2-5 3-6c0-2 0-3 1-3c0-1 0-9 0-11c0-1-1-3-1-4c-2-9-10-17-20-21c-2-1-2-2-2-3c0-1 4-1 13 0z"/><path d="M478 263c0 0-1 2-2 4c-3 5-10 14-14 18c-6 7-16 10-26 9c-4-1-5 0-5 12c0 12-1 19-3 27c-1 5-2 7-5 14c-1 3-3 9-4 10c-3 5-3 6-2 7c2 2 3 1 9-4c2-3 7-8 10-12c3-3 6-7 7-7c0-1 2-3 4-5c7-9 19-28 22-34c0 0 1-2 1-3c2-3 6-12 9-22c1-4 3-8 3-9c2-4-1-8-4-5zM471 285c0 1-1 4-4 9c-3 7-5 10-12 21c-1 2-5 8-7 10c-5 7-6 8-7 10c-1 0-2 2-3 4c-8 10-11 10-6-1c3-7 4-18 4-30c1-10 0-9 7-9c4 0 5 0 8-1c1-1 3-1 4-1c2-1 8-6 13-11c2-3 3-3 3-1z"/><path d="M669 263c-1 1-1 3 0 6c1 2 2 6 3 8c1 3 2 6 2 7c1 2 2 4 2 6c1 1 2 4 2 5c1 1 2 4 3 6c4 9 12 22 20 30c1 3 3 5 3 5c1 1 5 6 8 9c1 1 2 3 4 4c12 14 14 16 15 16c3 0 3-2 1-7c-9-18-12-31-13-53c0-12 1-11-7-11c-16 0-25-6-37-27c-3-5-4-6-6-4zM686 289c7 7 14 10 23 10c5 0 5 0 5 9c0 13 2 25 6 34c2 3 2 5 0 5c-1-1-6-6-10-12c-1-1-2-3-3-4c-1-2-3-3-4-5c0-1-2-2-2-3c-6-7-19-30-21-35c-1-5 0-5 6 1z"/><path d="M370 327c0 0-1 1-2 3c-5 4-32 32-34 33c-14 10-27 22-32 32c-1 1-2 3-2 4c-3 4-7 14-8 22c-2 12 4 28 12 34c13 9 24 9 37 1c20-13 25-38 10-49c-12-8-25 1-21 15c1 3 1 4-1 4c-2 0-8-5-10-8c-5-11 11-27 24-25c19 4 26 26 16 50c-5 11-8 16-18 22c-11 7-18 9-36 7c-10-1-10-2-8 18c0 8 2 24 4 28c0 2 1 5 1 7c1 3 2 5 2 6c1 2 2 5 3 8c1 5 6 14 8 18c0 2 1 3 1 4c1 1 1 2 2 3c2 4 2 5-1 2c0-1-2-3-2-4c-3-3-7-11-7-12c0 0-1-2-2-4c-1-1-2-4-2-6c0-1-1-4-2-6c0-2-1-4-1-5c0 0 0-2-1-3c0-1 0-2 0-3c-1-2-2-6-2-7c-1-2-2-5-2-8c-1-4-5-4-7-1c-1 2-5 5-7 6c-4 1-8 0-12-5c-3-2-4-3-5-2c-2 0-3 2-1 6c1 2 2 5 3 7c1 2 3 6 4 8c1 2 2 5 2 5c0 0 5 9 7 12c5 7 14 17 22 24c3 4 9 9 10 10c1 0 3 1 4 2c1 2 4 4 6 5c1 2 4 4 5 5c3 3 4 3 5 3c2-1 2-3-1-7c-1-1-2-3-3-4c0-1-2-3-2-4c-3-4-2-4 2 0c1 2 2 4 4 5c1 1 3 4 4 6c8 9 9 10 11 8c1-1 1-3 0-7c-1-2-2-5-3-7c-8-27-9-50-4-73c3-13 10-34 12-40c1-1 1-2 1-3c0 0 0-1 1-1c0-1 1-3 1-3c1-2 3-6 7-13c2-2 5-6 6-9c2-2 4-5 5-7c2-2 3-5 4-6c2-3 6-9 7-10c0-1 1-2 2-3c0-1 4-6 4-6c1 1-3 8-8 18c-1 2-2 4-3 5c0 1 0 2-1 4c-12 30-1 69 20 74c17 4 22-17 16-69c-1-4-1-5 0-10c0-4 0-8 0-11c1-5 1-6 2-10c1-4 3-10 4-15c1-2 2-6 3-9c1-3 2-6 3-7c1-3 3-8 5-10c3-7-1-10-6-3c-1 1-3 3-4 4c0 1-2 3-3 5c-2 1-4 4-5 6c-2 1-4 4-5 6c-2 2-4 4-5 6c-1 1-2 3-3 3c-1 2-2 2-2 2c-1 0 0-1 0-2c1 0 2-2 2-3c2-4 5-8 7-10c2-2 2-3 0-4c-1-1-2-1-7 1c-15 8-25 8-30 0c-3-7-4-24 0-36c0-2 1-3 1-4c0-1 1-3 2-6c2-6 1-9-3-7zM365 341c0 0 0 2-1 6c-8 33 5 51 28 42c5-2 6 0 2 5c-3 4-4 5-7 9c-7 11-6 10-12 19c-7 12-9 13-7 4c2-15-4-29-16-36c-10-5-20-3-30 5c-13 13-12 28 3 35c11 5 18 4 13-3c-3-3-4-10-4-13c3-8 14-6 19 3c4 9 2 19-8 29c-5 4-5 5-11 8c-12 6-26 1-32-12c-10-18-2-44 21-64c3-3 6-5 7-6c1-1 3-2 4-3c1-1 2-2 4-3c2-2 12-12 21-21c4-5 5-5 6-4zM418 384c0 1 0 2-1 4c0 1-1 4-2 7c-1 2-2 5-2 6c-2 6-4 13-4 17c-2 20-2 18 0 34c1 9 2 24 1 33c-1 18-5 23-14 19c-8-4-16-17-17-32c-1-11 0-25 4-35c2-5 5-11 7-14c0-1 2-3 2-5c4-7 9-15 10-16c0 0 2-2 3-4c11-14 13-17 13-14zM348 468c-1 1-1 3-2 5c-2 5-6 16-8 25c-1 2-2 5-2 6c0 2-1 4-1 6c0 1-1 4-1 6c-4 17-3 39 4 61c5 19-16-11-25-37c-6-15-10-31-11-51c0-4-1-8-1-9c0-3 1-4 6-3c11 3 24 1 34-6c2-1 4-3 4-3c2-1 3-1 3 0zM292 515c1 0 2 4 2 7c3 13 7 28 9 30c1 0 1 2 2 2c1 3 6 11 9 15c7 9 2 7-9-4c-10-9-19-21-25-32c-9-16-9-16-3-15c4 1 8 0 12-3c2-2 3-2 3 0z"/><path d="M777 327c-1 1-1 4 0 6c5 7 8 30 6 40c-3 12-11 16-25 11c-4-2-7-3-9-4c-3-3-6-3-6-1c-1 1 0 4 1 5c3 3 11 15 10 16c0 0-5-5-7-7c-1-2-3-4-4-5c-1-1-2-4-4-6c-1-1-3-3-3-4c-1-1-4-4-7-8c-6-8-7-9-9-8c-2 1-2 2 2 11c2 3 3 6 3 6c0 0 0 2 1 4c2 4 3 8 5 13c0 2 1 5 2 7c3 11 3 13 4 22c1 13 0 17-1 29c-2 13-2 33 0 41c3 14 10 19 21 14c20-9 27-47 14-77c0-2-3-6-5-10c-5-9-7-15-7-15c0-1 4 4 7 9c1 2 4 6 6 9c5 8 11 17 13 20c3 5 8 12 9 13c0 2 3 7 3 7c0 1 1 3 2 5c1 4 2 7 5 16c3 10 5 17 6 24c4 19 5 35 1 53c0 1-1 4-1 4c0 2-1 8-3 12c-1 6-3 11-4 13c-1 3 0 6 2 6c2 0 3-1 7-6c2-2 4-5 5-7c2-1 3-2 3-3c1-1 3-4 4-4c1 0 0 1-1 2c0 0-1 1-2 3c0 1-1 2-2 3c-2 3-2 7 0 7c2 0 2-1 6-4c1-2 4-4 5-5c13-10 25-20 30-27c1-1 2-2 3-3c6-7 15-22 20-35c1-3 2-5 3-6c4-7 1-10-5-5c-7 7-11 7-19 0c-5-5-6-5-7 1c-1 1-1 4-2 6c-1 4-3 12-3 14c-1 0-1 2-2 4c0 3-1 5-1 6c-1 5-5 12-7 17c-3 4-9 12-9 13c-1 0-1-1 0-2c1-2 9-19 11-24c5-12 7-21 9-34c1-2 1-5 2-6c1-6 2-29 1-30c-1-2-2-2-6-1c-23 2-29 1-46-13c-4-3-8-10-12-21c-2-5-3-13-3-18c2-25 24-35 40-19c7 8 7 19-2 24c-5 2-5 1-4-3c2-9 0-15-8-17c-5-2-11 0-16 5c-11 12-6 32 12 45c24 19 54-3 49-36c-1-9-6-21-11-27c0 0-1-1-1-2c-4-5-18-19-23-23c-3-2-5-3-9-6c-2-2-27-27-30-30c-3-4-5-5-7-4zM788 341c0 1 3 3 5 6c13 13 18 18 21 20c1 1 3 2 5 3c1 1 2 2 3 3c3 2 12 11 15 15c18 21 21 47 7 61c-12 13-30 9-43-9c-9-12-5-28 7-30c9-2 11 7 4 18c-4 6 3 7 15 1c16-8 14-28-5-38c-13-8-29-2-37 13c-2 5-3 15-2 22c0 4 0 4 0 5c0 1-3-1-4-2c-3-6-11-18-13-21c0-1-1-2-1-2c0 0-1-1-2-3c-10-14-10-14-9-15c1 0 1 0 3 1c8 2 12 3 16 2c15-2 20-20 13-46c-1-4 0-5 2-4zM734 384c2 2 6 7 8 9c1 2 3 4 4 5c6 8 8 11 18 29c10 19 11 47 3 64c-7 13-19 19-23 11c-1-3-2-6-3-8c0-1 0-4 0-5c-1-4-1-18 0-24c0-3 0-8 0-10c1-3 1-7 1-9c1-8 1-13 0-22c0-1 0-4 0-7c-1-3-1-5-2-10c-3-7-6-17-7-20c-2-5-1-6 1-3zM807 469c9 7 16 9 26 9c5 0 7 0 10-1c6-1 7-1 6 3c0 5 0 13-1 16c0 2 0 5-1 7c-1 12-7 33-12 44c0 1-2 4-3 6c0 2-1 4-2 5c0 0-1 1-1 2c-2 4-13 21-15 22c-3 1-3 1 1-11c6-22 6-43-1-68c-3-11-6-22-9-30c-3-6-2-7 2-4zM863 515c4 3 7 4 11 3c3-1 4-1 4 1c0 0-4 8-6 11c0 1-1 2-1 4c-6 10-17 24-32 37c-6 6-8 5-3-1c4-7 9-14 10-15c0 0 0-2 1-2c1-2 4-10 5-13c2-7 5-20 6-24c0-3 2-3 5-1z"/><path d="M575 399c-1 0-3 2-4 4c-7 12-18 20-33 26c-8 2-9 6-1 8c12 3 26 12 35 22c3 3 4 3 9-3c7-8 22-16 33-19c4-1 5-2 5-4c0-2-1-3-6-4c-12-5-23-12-28-18c0-1-1-2-2-3c-1-1-2-3-3-5c-3-4-4-5-5-4zM577 408c0 1 1 2 2 4c6 8 14 14 26 18c3 2 3 3 0 5c-10 3-18 8-25 14c-5 5-5 5-8 2c-6-7-13-11-23-15c-8-3-8-4 0-7c10-4 20-12 23-19c2-2 3-3 5-2z"/><path d="M118 298c-5 1-9 3-16 8c-6 4-7 6-3 8c2 1 3 2 4 5c2 3 3 5 7 8c2 2 2 2 0 6c-1 4-2 9 0 14c1 4 4 3 7-2c5-8 13-19 17-22c1-1 3-2 5-4c6-4 8-5 11-9c6-6 6-8-3-9c-3 0-7-1-10-1c-8-2-14-2-19-2zM131 304c13 2 13 2 13 4c0 1-2 3-7 6c-7 5-12 9-14 12c0 1-1 2-2 3c-1 1-2 3-2 4c-2 2-3 4-4 3c0 0 0-1 1-5c2-5 2-5-2-8c-4-3-5-5-7-8c-2-5-2-6 3-8c7-3 11-4 21-3z"/><path d="M1021 298c-1 1-4 1-5 1c-4 1-9 2-14 3c-4 0-5 1-5 2c-1 3 5 9 16 16c7 5 11 9 18 20c1 2 2 4 3 5c2 4 4 5 6 4c2-2 2-12 1-16c-2-4-2-4 2-8c3-4 4-4 5-6c0-3 1-4 3-5c5-2 5-4-1-8c-11-7-17-9-29-8zM1034 304c3 1 9 4 10 5c3 2-3 11-8 15c-3 2-3 2-1 8c2 4 2 7 0 5c0-1-1-1-2-2c0-1-1-2-2-4c-5-7-8-11-17-16c-10-7-10-8-3-9c12-3 18-3 23-2z"/><path d="M574 572c-1 1-1 2-3 5c0 3-1 6-2 7c0 1-2 5-3 8c-2 4-3 7-3 8c0 1-1 2-2 4c-1 2-2 5-3 8c-1 3-3 7-3 8c-4 9-6 15-7 18c-1 2-2 5-3 6c0 0-1 3-2 4c0 2-1 4-2 6c0 1-1 2-1 3c0 0-1 2-1 4c-2 4-8 18-9 20c0 2-1 4-2 7c-1 2-2 5-3 6c-3 8-11 28-11 30c-1 1-1 2-2 3c0 0-1 2-1 4c-1 1-2 5-3 7c-1 3-2 6-3 6c0 1-1 5-3 8c-1 4-3 8-4 10c-1 2-2 6-3 9c-8 19-10 22-18 25c-3 0-4 1-4 2c0 1 2 1 8 1c7 0 13 0 18 0c4 0 5 0 5-2c0 0-1-1-2-1c-4-1-5-3-4-8c1-2 6-16 9-23c0-1 2-4 2-6c1-2 3-7 5-10c1-3 2-6 2-7c1-1 2-3 3-6c0-2 1-4 2-5c0-1 0-3 1-3c0-1 2-4 3-8c0-1 1-3 2-5c1-2 3-7 4-10c1-3 2-6 2-7c1-2 2-2 7-2c6 0 48 0 54 0c7 0 7 0 8 4c3 7 5 12 5 13c2 4 4 10 8 19c1 3 2 5 3 6c0 1 1 3 1 4c0 1 1 3 2 5c1 1 1 3 2 4c0 1 1 3 2 5c1 3 2 5 2 6c0 1 2 5 4 10c6 15 7 18 6 21c-1 1-3 3-4 3c0 0-1 1-1 2c0 1 1 1 8 1c5-1 10-1 20 0c19 0 20 0 21-1c1-1 0-1-4-3c-9-3-13-8-19-25c-1-3-3-6-3-7c-1-2-3-7-5-13c-1-1-2-5-4-9c-5-14-6-16-7-19c-1-1-2-3-2-5c-2-3-3-5-4-10c-2-4-3-7-6-14c-2-4-3-8-4-9c0-2-1-3-1-3c0-1-1-2-1-3c-1-2-4-9-8-19c-1-2-2-5-2-6c-1-1-2-4-3-7c-1-3-3-7-3-8c-1-1-2-3-2-4c0-1-1-3-2-5c0-1-2-4-2-6c-1-2-2-5-3-7c-1-1-3-7-5-12c-7-19-8-21-10-26c-2-7-4-9-7-6zM568 615c1 1 2 2 3 7c2 6 4 10 5 14c3 8 4 9 5 12c1 2 2 4 2 5c1 1 1 3 1 3c1 1 1 2 1 3c1 1 1 2 2 4c1 3 5 12 7 18c4 9 4 9-5 8c-7 0-42 0-46 0c-6 1-6 0-3-7c1-2 3-6 4-9c1-3 2-6 3-7c2-6 5-14 6-16c0-1 1-4 2-7c3-6 7-16 9-22c2-6 2-6 4-6z"/></svg>
